<svg xmlns="http://www.w3.org/2000/svg" xmlns:xlink="http://www.w3.org/1999/xlink" version="1.1" id="Layer_1" x="0px" y="0px" width="205px" height="55px" viewBox="0 203.87 792 204.429" enable-background="new 0 203.87 792 204.429" xml:space="preserve">
<g>
	<path fill="#F9DF24" d="M472.28 277.4"/>
</g>
<path fill="#F05233" d="M97.886 203.701h87.021v19.051l-64.023 82.9h44.97v-16.989h19.229v36.043H97.886v-19.054l64.365-82.9h-45.14 v16.992H97.886V203.701z"/>
<path fill="#383E41" d="M293.091 305.652h15.273l23.003-41.36l-23.003-41.541h-15.273v-19.051h41.878v19.051h-4.808l12.186 21.8 l12.02-21.799h-4.635v-19.051h41.711v7.726c0 0.5 0.2 1.2 0.2 1.885s-0.168 1.373-0.168 1.89v7.55h-15.107l-23 41.5 l23 41.36h15.107v7.554c0 0.7 0.2 1.4 0.2 1.892c0 0.685-0.168 1.369-0.168 2.058v7.551h-41.711v-19.053h4.635 l-12.02-21.797l-12.186 21.797h4.808v19.052h-41.878V305.652z"/>
<path fill="#383E41" d="M413.24 305.652h22.482v-82.726h-14.761v16.99h-19.051V203.87h86.852v36.046H469.71v-16.989h-14.762v82.726 h22.483v19.052H413.24V305.652L413.24 305.652z"/>
<path fill="#383E41" d="M596.494 203.701h30.377l37.421 81.873v-62.822h-11.331v-19.051h41.715v19.051h-11.332v101.955h-19.048 l-37.422-82.217v63.163h11.329v19.053h-41.709v-19.053h11.323v-82.9h-11.323V203.701L596.494 203.701z"/>
<path fill="#383E41" d="M704.802 203.701h87.022v19.051l-64.023 82.9h44.973v-16.989h19.224v36.043h-87.195v-19.054l64.364-82.9 h-45.143v16.992h-19.222V203.701L704.802 203.701z"/>
<g>
	<rect x="537.2" y="254.7" fill="#383E41" width="26.4" height="19.1"/>
	<polygon fill="#383E41" points="586.3,239.7 586.3,203.7 499.1,203.7 499.1,222.9 510.4,222.9 510.4,305.7 499.1,305.7 499.1,324.7 586.3,324.7 586.3,288.7 567,288.7 567,305.7 529.6,305.7 529.6,293.9 529.6,293.9 529.6,234.7 529.6,234.7 529.6,222.9 567,222.9 567,239.7"/>
</g>
<g>
	<rect x="234" y="254.7" fill="#F05233" width="26.3" height="19.1"/>
	<polygon fill="#F05233" points="283,239.7 283,203.7 195.8,203.7 195.8,222.9 207.1,222.9 207.1,305.7 195.8,305.7 195.8,324.7 283,324.7 283,288.7 263.7,288.7 263.7,305.7 226.3,305.7 226.3,273.7 226.3,273.7 226.3,254.7 226.3,254.7 226.3,222.9 263.7,222.9 263.7,239.7"/>
</g>
<g>
	<polygon fill="#F05233" points="87.2,239.7 87.2,203.7 0,203.7 0,222.9 11.3,222.9 11.3,305.7 0,305.7 0,324.7 87.2,324.7 87.2,288.7 68,288.7 68,305.7 30.6,305.7 30.6,273.7 30.6,273.7 30.6,254.7 30.6,254.7 30.6,222.9 68,222.9 68,239.7"/>
	<rect x="38.2" y="254.7" fill="#F05233" width="26.3" height="19.1"/>
</g>
<rect x="198" y="335.2" fill="#9BA4AA" width="198" height="36.2"/>
<rect y="335.2" fill="#C6CED3" width="198" height="36.2"/>
<rect x="396" y="335.2" fill="#767F84" width="198" height="36.2"/>
<rect x="594" y="335.2" fill="#383E41" width="198" height="36.2"/>
<g>
	<path fill="#F9DF24" d="M472.28 277.4"/>
</g>
<g>
	<path fill="#383E41" d="M691.808 408.278c-5.23 0-9.496-4.225-9.496-9.457v-7.4c0-5.233 4.262-9.496 9.496-9.496 c1.526 0 3 0.4 4.3 1.087v-1.087h3.927v6.543h-3.814c-1.007-1.498-2.652-2.355-4.449-2.355 c-2.917 0-5.307 2.355-5.307 5.309v7.4c0 2.9 2.4 5.3 5.3 5.309c2.915 0 5.309-2.393 5.309-5.309v-2.092h4.189v2.092 C701.306 404.1 697 408.3 691.8 408.278z"/>
	<path fill="#383E41" d="M703.506 404.129h2.474v-17.942c0-0.037 0-0.078 0.037-0.078h-2.511v-4.188h9.123v4.188h-2.465v6.919h8.151 v-6.919h-2.464v-4.188h9.122v4.188h-2.473v18.017h2.473v4.147h-9.122v-4.147h2.464v-6.951h-8.151v6.951h2.465v4.147h-9.123V404.129 z"/>
	<path fill="#383E41" d="M727.177 381.925h9.122v4.15h-2.469v13.939c0 2.3 1.8 4.1 4.1 4.1 c2.242 0 4.071-1.836 4.071-4.114v-13.938h-2.464v-4.15h9.119v4.15h-2.466v13.939c0 4.563-3.704 8.265-8.261 8.3 c-4.562 0-8.267-3.701-8.267-8.265v-13.939h-2.461V381.925L727.177 381.925z"/>
	<path fill="#383E41" d="M753.342 404.129h4.896v-18.016h-3.216v3.703h-4.147v-7.852h18.918v7.852h-4.148v-3.703h-3.219v18.016 h4.896v4.148H753.34v-4.148H753.342z"/>
	<path fill="#383E41" d="M772.028 404.129h2.466v-18.016h-2.466v-4.188h18.988v7.85h-4.183v-3.666h-8.157v6.919h7.402v4.147h-7.402 v6.951h8.157v-3.7h4.183v7.849h-18.988V404.129z"/>
</g>
<g>
	<path fill="#383E41" d="M498.146 408.299c-5.229 0-9.493-4.224-9.493-9.457v-7.403c0-5.232 4.258-9.493 9.493-9.493 c1.535 0 3 0.4 4.3 1.084v-1.084h3.925v6.543h-3.812c-1.011-1.498-2.651-2.358-4.453-2.358 c-2.913 0-5.306 2.358-5.306 5.309v7.403c0 2.9 2.4 5.3 5.3 5.308c2.92 0 5.309-2.391 5.309-5.308v-2.095h4.192v2.095 C507.643 404.1 503.4 408.3 498.1 408.299z"/>
	<path fill="#383E41" d="M528.838 398.841c0 5.195-4.224 9.457-9.451 9.457c-5.236 0-9.46-4.262-9.46-9.457v-7.405 c0-5.195 4.224-9.455 9.46-9.455c5.228 0 9.5 4.3 9.5 9.455V398.841z M524.689 391.438c0-2.917-2.391-5.309-5.303-5.309 c-2.917 0-5.312 2.391-5.312 5.309v7.403c0 2.9 2.4 5.3 5.3 5.308c2.912 0 5.303-2.391 5.303-5.308V391.438z"/>
	<path fill="#383E41" d="M531.119 381.945h6.617l8.151 17.829v-13.679h-2.472v-4.147h9.087v4.147h-2.469v22.203h-4.147l-8.15-17.905 v13.756h2.465v4.149h-9.082v-4.149h2.467v-18.054h-2.467V381.945z"/>
	<path fill="#383E41" d="M564.238 408.299c-5.234 0-9.496-4.224-9.496-9.457v-7.403c0-5.232 4.258-9.493 9.496-9.493 c1.529 0 3 0.4 4.3 1.084v-1.084h3.924v6.543h-3.815c-1.009-1.498-2.652-2.358-4.446-2.358 c-2.917 0-5.309 2.358-5.309 5.309v7.403c0 2.9 2.4 5.3 5.3 5.308c2.916 0 5.309-2.391 5.309-5.308v-2.095h4.188v2.095 C573.734 404.1 569.5 408.3 564.2 408.299z"/>
	<path fill="#383E41" d="M588.272 404.146h0.97l-3.813-6.914h-2.837v6.914h2.466v4.151h-9.083v-4.151h2.468v-18.053h-2.468v-4.148 h11.479c4.109 0 7.4 3.4 7.4 7.662c0 3.289-2.056 6.13-4.972 7.177l4.114 7.362h3.326v4.151h-9.083L588.272 404.1 L588.272 404.146z M587.45 386.094h-4.858v6.951h4.858c1.829 0 3.287-1.532 3.287-3.439 C590.737 387.7 589.3 386.1 587.5 386.094z"/>
	<path fill="#383E41" d="M599.595 404.146h2.466V386.13h-2.466v-4.185h18.99v7.847h-4.189v-3.664h-8.147v6.917h7.4v4.147h-7.4v6.948 h8.148v-3.698h4.189v7.85h-18.991V404.146z"/>
	<path fill="#383E41" d="M623.337 404.146h4.896V386.13h-3.216v3.703h-4.149v-7.852h18.919v7.852h-4.149v-3.703h-3.213v18.017h4.896 v4.151h-13.983V404.146z"/>
	<path fill="#383E41" d="M641.973 404.146h2.469V386.13h-2.469v-4.185h18.992v7.847h-4.193v-3.664h-8.146v6.917h7.401v4.147h-7.401 v6.948h8.146v-3.698h4.193v7.85h-18.99v-4.146H641.973z"/>
</g>
</svg>
