<?xml version="1.0" encoding="utf-8"?>
<!-- Generator: Adobe Illustrator 16.0.0, SVG Export Plug-In . SVG Version: 6.00 Build 0)  -->
<!DOCTYPE svg PUBLIC "-//W3C//DTD SVG 1.1//EN" "http://www.w3.org/Graphics/SVG/1.1/DTD/svg11.dtd">
<svg version="1.1" id="Layer_1" xmlns="http://www.w3.org/2000/svg" xmlns:xlink="http://www.w3.org/1999/xlink" x="0px" y="0px"
	 width="1252px" height="723px" viewBox="0 0 1252 723" enable-background="new 0 0 1252 723" xml:space="preserve">
<rect x="-18.015" y="-26.904" fill="#EF5033" width="1297.171" height="776.523"/>
<rect x="83.087" y="33.111" fill="none" stroke="#E9EEF1" stroke-width="0.75" stroke-miterlimit="10" width="320.246" height="192.888"/>
<g>
	<g>
		<path fill="#E9EEF1" d="M109.387,67.26v3.267h-16.07v-23.43h15.773v3.267H97.012v6.666h10.461v3.069H97.012v7.161H109.387z"/>
		<path fill="#E9EEF1" d="M117.307,70.857c-0.836,0-1.611-0.138-2.326-0.413s-1.332-0.654-1.848-1.139
			c-0.518-0.483-0.924-1.056-1.221-1.716c-0.298-0.66-0.446-1.375-0.446-2.145c0-0.813,0.176-1.551,0.528-2.211
			c0.352-0.66,0.852-1.232,1.502-1.716c0.648-0.484,1.418-0.858,2.31-1.122c0.891-0.264,1.875-0.396,2.953-0.396
			c0.813,0,1.617,0.071,2.409,0.214c0.792,0.144,1.507,0.335,2.145,0.578v-1.188c0-1.276-0.362-2.271-1.088-2.987
			c-0.727-0.714-1.771-1.072-3.136-1.072c-0.924,0-1.831,0.17-2.722,0.511c-0.892,0.341-1.811,0.831-2.756,1.469l-1.123-2.31
			c2.223-1.496,4.533-2.244,6.931-2.244c2.376,0,4.224,0.605,5.544,1.815c1.32,1.21,1.98,2.949,1.98,5.214v6.237
			c0,0.418,0.076,0.715,0.23,0.891c0.154,0.176,0.418,0.275,0.792,0.297v3.102c-0.353,0.066-0.677,0.11-0.974,0.132
			s-0.566,0.033-0.809,0.033c-0.704-0.044-1.237-0.231-1.6-0.561c-0.363-0.33-0.59-0.77-0.677-1.32l-0.099-1.089
			c-0.771,1.012-1.723,1.788-2.855,2.327C119.82,70.588,118.605,70.857,117.307,70.857z M118.297,68.185
			c0.88,0,1.711-0.16,2.492-0.479c0.78-0.319,1.391-0.764,1.831-1.337c0.462-0.396,0.692-0.813,0.692-1.254v-2.277
			c-0.615-0.242-1.27-0.429-1.963-0.561s-1.369-0.198-2.029-0.198c-1.299,0-2.359,0.281-3.186,0.842
			c-0.824,0.561-1.236,1.303-1.236,2.228c0,0.858,0.318,1.579,0.957,2.162C116.492,67.893,117.307,68.185,118.297,68.185z"/>
		<path fill="#E9EEF1" d="M137.832,70.857c-0.704,0-1.414-0.055-2.128-0.165c-0.716-0.11-1.419-0.269-2.112-0.479
			c-0.693-0.209-1.354-0.462-1.98-0.759c-0.627-0.297-1.182-0.632-1.666-1.007l1.518-2.442c2.113,1.474,4.213,2.211,6.304,2.211
			c1.1,0,1.968-0.209,2.606-0.627c0.639-0.417,0.957-1.012,0.957-1.782c0-0.726-0.357-1.259-1.072-1.6
			c-0.715-0.341-1.854-0.698-3.416-1.073c-1.078-0.264-2.002-0.533-2.771-0.809c-0.77-0.274-1.396-0.583-1.881-0.924
			c-0.484-0.341-0.836-0.748-1.057-1.221c-0.22-0.473-0.33-1.039-0.33-1.699c0-0.88,0.177-1.661,0.529-2.343
			c0.352-0.682,0.83-1.259,1.436-1.732c0.604-0.473,1.319-0.83,2.145-1.072c0.824-0.242,1.71-0.363,2.656-0.363
			c1.254,0,2.464,0.198,3.63,0.594s2.212,0.935,3.136,1.617l-1.552,2.211c-1.649-1.232-3.41-1.848-5.28-1.848
			c-0.924,0-1.705,0.193-2.342,0.578c-0.639,0.385-0.957,0.996-0.957,1.831c0,0.353,0.065,0.649,0.197,0.891
			c0.132,0.243,0.347,0.451,0.644,0.627c0.297,0.177,0.688,0.336,1.171,0.479c0.484,0.144,1.078,0.303,1.783,0.479
			c1.188,0.286,2.211,0.572,3.068,0.858c0.857,0.287,1.567,0.622,2.129,1.007c0.561,0.385,0.973,0.836,1.237,1.353
			c0.264,0.517,0.396,1.138,0.396,1.864c0,0.814-0.164,1.551-0.494,2.211c-0.33,0.66-0.799,1.221-1.402,1.683
			c-0.605,0.462-1.343,0.82-2.212,1.073C139.851,70.73,138.889,70.857,137.832,70.857z"/>
		<path fill="#E9EEF1" d="M147.997,74.619c0.308,0.066,0.594,0.11,0.858,0.132c0.264,0.021,0.506,0.033,0.726,0.033
			c0.286,0,0.538-0.033,0.759-0.099c0.22-0.066,0.434-0.237,0.644-0.512c0.209-0.275,0.44-0.699,0.692-1.271
			c0.254-0.572,0.557-1.364,0.908-2.376l-7.062-17.259h3.729l5.347,14.058l4.752-14.058h3.432l-7.887,21.252
			c-0.441,1.188-1.102,2.067-1.98,2.64c-0.881,0.572-1.903,0.858-3.069,0.858c-0.638,0-1.254-0.088-1.848-0.264V74.619z"/>
		<path fill="#E9EEF1" d="M164.695,63.135v-3.267h9.867v3.267H164.695z"/>
		<path fill="#E9EEF1" d="M179.182,70.527v-23.43h8.316c1.891,0,3.547,0.309,4.966,0.924c1.419,0.616,2.606,1.452,3.563,2.508
			s1.678,2.293,2.162,3.712s0.727,2.932,0.727,4.538c0,1.782-0.27,3.394-0.809,4.834c-0.539,1.441-1.304,2.673-2.294,3.696
			c-0.989,1.023-2.189,1.815-3.597,2.376c-1.408,0.561-2.981,0.841-4.719,0.841H179.182z M195.153,58.779
			c0-1.232-0.171-2.365-0.511-3.399c-0.342-1.034-0.842-1.919-1.502-2.657c-0.66-0.737-1.463-1.314-2.409-1.732
			c-0.946-0.417-2.024-0.627-3.233-0.627h-4.621V67.26h4.621c1.231,0,2.326-0.214,3.283-0.644c0.957-0.429,1.76-1.023,2.408-1.782
			c0.649-0.759,1.139-1.655,1.469-2.689S195.153,59.99,195.153,58.779z"/>
		<path fill="#E9EEF1" d="M210.168,70.857c-1.364,0-2.591-0.242-3.68-0.726s-2.019-1.133-2.789-1.947
			c-0.77-0.814-1.363-1.766-1.781-2.854c-0.418-1.089-0.627-2.228-0.627-3.416s0.209-2.327,0.627-3.416
			c0.418-1.089,1.018-2.041,1.799-2.854c0.78-0.814,1.715-1.463,2.805-1.947c1.089-0.483,2.305-0.726,3.646-0.726
			s2.558,0.243,3.646,0.726c1.089,0.484,2.023,1.133,2.805,1.947s1.381,1.765,1.799,2.854c0.418,1.089,0.627,2.228,0.627,3.416
			s-0.209,2.326-0.627,3.416c-0.418,1.089-1.018,2.041-1.799,2.854s-1.716,1.463-2.805,1.947S211.51,70.857,210.168,70.857z
			 M205.02,61.947c0,0.836,0.133,1.606,0.396,2.31c0.264,0.705,0.627,1.315,1.089,1.832c0.462,0.517,1.007,0.924,1.634,1.221
			c0.627,0.297,1.303,0.445,2.029,0.445s1.402-0.148,2.029-0.445c0.627-0.297,1.172-0.709,1.634-1.238
			c0.462-0.528,0.825-1.144,1.089-1.848c0.264-0.704,0.396-1.474,0.396-2.31c0-0.814-0.133-1.579-0.396-2.294
			c-0.264-0.714-0.627-1.336-1.089-1.864s-1.007-0.94-1.634-1.237c-0.627-0.297-1.303-0.446-2.029-0.446
			c-0.705,0-1.369,0.154-1.996,0.462c-0.627,0.309-1.172,0.726-1.634,1.254c-0.462,0.528-0.831,1.149-1.106,1.864
			C205.157,60.369,205.02,61.134,205.02,61.947z"/>
		<path fill="#E9EEF1" d="M230.066,70.857c-1.342,0-2.562-0.237-3.662-0.709c-1.101-0.473-2.041-1.116-2.822-1.931
			c-0.781-0.813-1.386-1.76-1.814-2.838c-0.43-1.078-0.644-2.222-0.644-3.432c0-1.209,0.214-2.359,0.644-3.448
			c0.429-1.089,1.033-2.046,1.814-2.871c0.781-0.825,1.722-1.474,2.822-1.947c1.1-0.473,2.331-0.709,3.695-0.709
			c1.342,0,2.558,0.243,3.646,0.726c1.09,0.484,2.019,1.128,2.789,1.931c0.77,0.803,1.357,1.738,1.766,2.805
			c0.406,1.067,0.609,2.184,0.609,3.35c0,0.264-0.011,0.512-0.032,0.743c-0.022,0.231-0.044,0.424-0.065,0.578h-13.828
			c0.066,0.77,0.248,1.463,0.545,2.079c0.297,0.616,0.682,1.15,1.155,1.601c0.473,0.451,1.011,0.798,1.616,1.04
			c0.605,0.242,1.238,0.363,1.898,0.363c0.483,0,0.962-0.061,1.436-0.182c0.473-0.121,0.907-0.297,1.303-0.528
			c0.396-0.231,0.748-0.511,1.057-0.841c0.308-0.33,0.549-0.693,0.726-1.089l3.103,0.891c-0.594,1.298-1.579,2.359-2.954,3.184
			C233.493,70.445,231.893,70.857,230.066,70.857z M235.314,60.594c-0.066-0.726-0.248-1.396-0.545-2.013
			c-0.297-0.616-0.677-1.139-1.139-1.568c-0.462-0.429-1.002-0.764-1.617-1.006c-0.616-0.242-1.266-0.363-1.947-0.363
			s-1.325,0.121-1.93,0.363c-0.605,0.242-1.139,0.578-1.602,1.006c-0.461,0.429-0.836,0.952-1.121,1.568
			c-0.286,0.616-0.463,1.287-0.528,2.013H235.314z"/>
		<path fill="#E9EEF1" d="M248.283,70.857c-0.705,0-1.414-0.055-2.129-0.165c-0.715-0.11-1.419-0.269-2.112-0.479
			c-0.692-0.209-1.353-0.462-1.979-0.759c-0.627-0.297-1.184-0.632-1.667-1.007l1.519-2.442c2.111,1.474,4.213,2.211,6.303,2.211
			c1.1,0,1.969-0.209,2.607-0.627c0.637-0.417,0.957-1.012,0.957-1.782c0-0.726-0.358-1.259-1.073-1.6
			c-0.715-0.341-1.854-0.698-3.415-1.073c-1.078-0.264-2.002-0.533-2.772-0.809c-0.771-0.274-1.397-0.583-1.881-0.924
			c-0.484-0.341-0.837-0.748-1.056-1.221c-0.221-0.473-0.33-1.039-0.33-1.699c0-0.88,0.176-1.661,0.527-2.343
			c0.352-0.682,0.83-1.259,1.436-1.732c0.605-0.473,1.32-0.83,2.146-1.072s1.71-0.363,2.656-0.363c1.254,0,2.464,0.198,3.63,0.594
			s2.211,0.935,3.135,1.617l-1.551,2.211c-1.65-1.232-3.41-1.848-5.279-1.848c-0.924,0-1.705,0.193-2.344,0.578
			s-0.957,0.996-0.957,1.831c0,0.353,0.066,0.649,0.198,0.891c0.132,0.243,0.347,0.451,0.644,0.627
			c0.297,0.177,0.688,0.336,1.172,0.479c0.483,0.144,1.077,0.303,1.781,0.479c1.188,0.286,2.211,0.572,3.069,0.858
			c0.858,0.287,1.567,0.622,2.128,1.007c0.562,0.385,0.975,0.836,1.238,1.353c0.264,0.517,0.396,1.138,0.396,1.864
			c0,0.814-0.166,1.551-0.496,2.211c-0.33,0.66-0.797,1.221-1.402,1.683s-1.342,0.82-2.211,1.073
			C250.301,70.73,249.339,70.857,248.283,70.857z"/>
		<path fill="#E9EEF1" d="M258.018,63.135v-3.267h9.867v3.267H258.018z"/>
		<path fill="#E9EEF1" d="M272.505,70.527V47.13h3.696v23.397H272.505z"/>
		<path fill="#E9EEF1" d="M290.357,69.636c-0.484,0.22-1.128,0.468-1.931,0.743c-0.804,0.275-1.678,0.413-2.624,0.413
			c-0.572,0-1.105-0.078-1.6-0.231c-0.496-0.154-0.936-0.385-1.32-0.693c-0.385-0.308-0.688-0.709-0.908-1.204
			c-0.22-0.495-0.33-1.094-0.33-1.799V56.073h-2.31v-2.805h2.31v-5.676h3.631v5.676h3.762v2.805h-3.762v9.636
			c0,0.616,0.176,1.062,0.527,1.336c0.352,0.275,0.781,0.413,1.287,0.413s0.99-0.088,1.452-0.264
			c0.462-0.176,0.804-0.319,1.022-0.429L290.357,69.636z"/>
	</g>
</g>
<rect x="93.502" y="83.728" fill="#FFFFFF" width="198.169" height="20.104"/>
<path fill="#373D41" d="M856.991,195.045c3.213,2.056,10.665,5.269,18.503,5.269c14.521,0,19.018-9.252,18.889-16.19
	c-0.128-11.693-10.665-16.704-21.587-16.704H866.5v-8.481h6.296c8.224,0,18.632-4.24,18.632-14.134
	c0-6.682-4.24-12.592-14.648-12.592c-6.682,0-13.106,2.955-16.704,5.525l-2.955-8.224c4.368-3.212,12.85-6.425,21.844-6.425
	c16.447,0,23.9,9.766,23.9,19.917c0,8.609-5.141,15.933-15.42,19.66v0.257c10.279,2.056,18.632,9.766,18.632,21.458
	c0,13.364-10.408,25.057-30.453,25.057c-9.38,0-17.604-2.956-21.716-5.654L856.991,195.045z"/>
<path fill="#373D41" d="M968.035,165.363c0,28.397-10.537,44.074-29.04,44.074c-16.318,0-27.369-15.291-27.626-42.917
	c0-28.012,12.078-43.431,29.039-43.431C958.013,123.088,968.035,138.765,968.035,165.363z M922.677,166.648
	c0,21.715,6.682,34.051,16.961,34.051c11.564,0,17.09-13.492,17.09-34.822c0-20.559-5.269-34.051-16.961-34.051
	C929.872,131.826,922.677,143.904,922.677,166.648z"/>
<g>
	<g>
		<path fill="#373D41" d="M993.688,208.209v-19.782h-3.226v-3.179h3.226v-1.091c0-3.226,0.712-6.167,2.657-8.018
			c1.565-1.518,3.652-2.135,5.598-2.135c1.471,0,2.752,0.332,3.558,0.665l-0.569,3.226c-0.616-0.285-1.471-0.522-2.656-0.522
			c-3.558,0-4.459,3.131-4.459,6.642v1.233h5.55v3.179h-5.55v19.782H993.688z"/>
		<path fill="#373D41" d="M1013.85,178.655v6.594h5.978v3.179h-5.978v12.382c0,2.846,0.807,4.459,3.132,4.459
			c1.091,0,1.897-0.142,2.419-0.285l0.189,3.131c-0.806,0.332-2.087,0.569-3.7,0.569c-1.944,0-3.51-0.617-4.507-1.755
			c-1.186-1.233-1.612-3.273-1.612-5.978v-12.524h-3.559v-3.179h3.559v-5.503L1013.85,178.655z"/>
	</g>
</g>
<rect x="134.162" y="440.387" fill="#E9EEF1" width="130.718" height="20.101"/>
<g>
	<path fill="#373D41" d="M142.77,454.723v-9.521h3.46c0.777,0,1.459,0.125,2.045,0.376c0.585,0.25,1.074,0.59,1.468,1.019
		c0.394,0.43,0.688,0.932,0.885,1.509c0.197,0.576,0.295,1.191,0.295,1.844c0,0.724-0.109,1.379-0.328,1.964
		c-0.219,0.586-0.534,1.087-0.945,1.502c-0.411,0.416-0.905,0.737-1.481,0.966c-0.577,0.228-1.223,0.342-1.938,0.342H142.77z
		 M149.059,449.95c0-0.456-0.062-0.876-0.188-1.261c-0.126-0.384-0.309-0.715-0.55-0.992c-0.242-0.277-0.539-0.491-0.892-0.644
		c-0.354-0.152-0.754-0.228-1.2-0.228h-1.609v6.275h1.609c0.455,0,0.86-0.081,1.213-0.242c0.354-0.16,0.648-0.382,0.886-0.663
		c0.236-0.282,0.417-0.615,0.543-0.999C148.996,450.812,149.059,450.397,149.059,449.95z"/>
	<path fill="#373D41" d="M155.481,454.857c-0.563,0-1.072-0.096-1.528-0.288s-0.845-0.453-1.167-0.784
		c-0.321-0.331-0.569-0.715-0.744-1.153c-0.174-0.438-0.262-0.898-0.262-1.381c0-0.501,0.085-0.973,0.255-1.415
		s0.416-0.831,0.738-1.166c0.321-0.336,0.712-0.602,1.173-0.798c0.46-0.197,0.977-0.296,1.549-0.296s1.084,0.099,1.535,0.296
		c0.451,0.196,0.836,0.46,1.153,0.791c0.317,0.33,0.559,0.715,0.724,1.153c0.166,0.438,0.248,0.894,0.248,1.367
		c0,0.116-0.002,0.228-0.006,0.335c-0.005,0.107-0.017,0.197-0.034,0.269h-5.431c0.027,0.277,0.094,0.522,0.201,0.737
		s0.246,0.398,0.416,0.55c0.17,0.152,0.362,0.269,0.576,0.349c0.215,0.08,0.438,0.121,0.671,0.121c0.357,0,0.694-0.088,1.012-0.262
		c0.317-0.175,0.534-0.404,0.65-0.69l1.542,0.429c-0.259,0.536-0.672,0.977-1.24,1.321
		C156.945,454.685,156.269,454.857,155.481,454.857z M157.306,450.62c-0.045-0.527-0.239-0.949-0.584-1.267
		c-0.344-0.317-0.762-0.477-1.254-0.477c-0.241,0-0.467,0.043-0.677,0.128s-0.396,0.203-0.557,0.355
		c-0.161,0.151-0.293,0.335-0.396,0.55c-0.103,0.214-0.163,0.451-0.181,0.71H157.306z"/>
	<path fill="#373D41" d="M160.241,444.935h1.797v7.455c0,0.545,0.246,0.817,0.737,0.817c0.099,0,0.213-0.018,0.342-0.054
		c0.13-0.035,0.253-0.075,0.369-0.12l0.241,1.435c-0.241,0.116-0.522,0.206-0.845,0.269c-0.321,0.062-0.612,0.094-0.871,0.094
		c-0.563,0-0.999-0.149-1.308-0.449s-0.463-0.727-0.463-1.28V444.935z"/>
	<path fill="#373D41" d="M164.505,446.718v-1.783h1.797v1.783H164.505z M164.505,454.723v-7.026h1.797v7.026H164.505z"/>
	<path fill="#373D41" d="M169.761,454.723l-2.588-7.026h1.851l1.783,5.564l1.797-5.564h1.689l-2.588,7.026H169.761z"/>
	<path fill="#373D41" d="M178.45,454.857c-0.563,0-1.072-0.096-1.528-0.288s-0.845-0.453-1.167-0.784
		c-0.321-0.331-0.569-0.715-0.744-1.153c-0.174-0.438-0.262-0.898-0.262-1.381c0-0.501,0.085-0.973,0.255-1.415
		s0.416-0.831,0.738-1.166c0.321-0.336,0.712-0.602,1.173-0.798c0.46-0.197,0.977-0.296,1.549-0.296s1.084,0.099,1.535,0.296
		c0.451,0.196,0.836,0.46,1.153,0.791c0.317,0.33,0.559,0.715,0.724,1.153c0.166,0.438,0.248,0.894,0.248,1.367
		c0,0.116-0.002,0.228-0.006,0.335c-0.005,0.107-0.017,0.197-0.034,0.269h-5.431c0.027,0.277,0.094,0.522,0.201,0.737
		s0.246,0.398,0.416,0.55c0.17,0.152,0.362,0.269,0.576,0.349c0.215,0.08,0.438,0.121,0.671,0.121c0.357,0,0.694-0.088,1.012-0.262
		c0.317-0.175,0.534-0.404,0.65-0.69l1.542,0.429c-0.259,0.536-0.672,0.977-1.24,1.321
		C179.914,454.685,179.237,454.857,178.45,454.857z M180.274,450.62c-0.045-0.527-0.239-0.949-0.584-1.267
		c-0.344-0.317-0.762-0.477-1.254-0.477c-0.241,0-0.467,0.043-0.677,0.128s-0.396,0.203-0.557,0.355
		c-0.161,0.151-0.293,0.335-0.396,0.55c-0.103,0.214-0.163,0.451-0.181,0.71H180.274z"/>
	<path fill="#373D41" d="M187.407,449.252c-0.546,0.009-1.032,0.114-1.462,0.315c-0.429,0.2-0.737,0.502-0.925,0.904v4.251h-1.797
		v-7.026h1.649v1.502c0.241-0.482,0.557-0.872,0.945-1.167s0.798-0.442,1.227-0.442c0.099,0,0.172,0.003,0.222,0.007
		c0.049,0.005,0.096,0.012,0.141,0.021V449.252z"/>
	<path fill="#373D41" d="M188.507,456.091c0.161,0.044,0.309,0.075,0.442,0.094c0.134,0.018,0.25,0.026,0.349,0.026
		c0.116,0,0.219-0.02,0.309-0.061c0.089-0.04,0.177-0.113,0.262-0.221s0.169-0.257,0.255-0.449c0.084-0.192,0.176-0.445,0.274-0.758
		l-2.789-7.026h1.851l1.917,5.471l1.689-5.471h1.69l-2.964,8.421c-0.188,0.536-0.487,0.95-0.898,1.24s-0.89,0.436-1.435,0.436
		c-0.313,0-0.63-0.049-0.952-0.147V456.091z"/>
	<path fill="#373D41" d="M198.201,449.896c0-0.581,0.104-1.155,0.309-1.724c0.206-0.567,0.503-1.074,0.892-1.521
		s0.865-0.809,1.429-1.086c0.562-0.277,1.206-0.416,1.931-0.416c0.849,0,1.584,0.192,2.206,0.577
		c0.621,0.384,1.079,0.885,1.374,1.501l-1.421,0.979c-0.107-0.269-0.246-0.494-0.416-0.678c-0.17-0.183-0.355-0.328-0.557-0.436
		s-0.409-0.186-0.623-0.234c-0.215-0.049-0.421-0.074-0.617-0.074c-0.438,0-0.822,0.094-1.153,0.282
		c-0.331,0.188-0.605,0.431-0.824,0.73c-0.22,0.3-0.385,0.64-0.496,1.02c-0.112,0.38-0.168,0.757-0.168,1.133
		c0,0.42,0.064,0.824,0.194,1.213c0.13,0.39,0.312,0.731,0.55,1.026c0.236,0.295,0.521,0.532,0.852,0.711
		c0.33,0.179,0.692,0.268,1.086,0.268c0.206,0,0.416-0.026,0.63-0.08c0.215-0.054,0.423-0.139,0.624-0.255s0.387-0.266,0.557-0.449
		s0.309-0.404,0.415-0.664l1.516,0.872c-0.144,0.357-0.351,0.673-0.623,0.945c-0.273,0.272-0.584,0.503-0.933,0.69
		s-0.715,0.331-1.1,0.429c-0.384,0.099-0.764,0.147-1.14,0.147c-0.661,0-1.267-0.143-1.816-0.429s-1.024-0.659-1.422-1.12
		c-0.397-0.46-0.706-0.982-0.925-1.568C198.311,451.101,198.201,450.504,198.201,449.896z"/>
	<path fill="#373D41" d="M209.492,454.857c-0.34,0-0.657-0.056-0.952-0.167c-0.295-0.112-0.55-0.269-0.764-0.47
		c-0.215-0.201-0.383-0.436-0.503-0.704c-0.121-0.268-0.182-0.562-0.182-0.885c0-0.331,0.074-0.637,0.222-0.919
		c0.147-0.281,0.353-0.521,0.616-0.717s0.579-0.351,0.945-0.463c0.367-0.111,0.77-0.168,1.207-0.168
		c0.313,0,0.619,0.027,0.919,0.081c0.299,0.054,0.565,0.13,0.798,0.228v-0.402c0-0.464-0.132-0.822-0.396-1.072
		s-0.655-0.376-1.174-0.376c-0.375,0-0.742,0.067-1.1,0.201c-0.357,0.135-0.724,0.331-1.1,0.591l-0.55-1.141
		c0.903-0.599,1.878-0.898,2.924-0.898c1.01,0,1.794,0.248,2.354,0.745c0.559,0.496,0.838,1.213,0.838,2.151v2.186
		c0,0.188,0.035,0.322,0.107,0.402c0.071,0.081,0.196,0.126,0.375,0.135v1.528c-0.17,0.035-0.328,0.061-0.476,0.074
		c-0.147,0.013-0.275,0.02-0.383,0.02c-0.34-0.009-0.599-0.087-0.777-0.234s-0.291-0.347-0.335-0.597l-0.041-0.389
		c-0.312,0.411-0.692,0.724-1.14,0.938C210.479,454.75,210.002,454.857,209.492,454.857z M210.002,453.543
		c0.304,0,0.592-0.054,0.864-0.161c0.273-0.107,0.485-0.25,0.638-0.429c0.196-0.152,0.295-0.322,0.295-0.51v-0.805
		c-0.215-0.08-0.447-0.146-0.697-0.194c-0.251-0.049-0.492-0.074-0.725-0.074c-0.465,0-0.845,0.105-1.14,0.315
		s-0.442,0.476-0.442,0.798c0,0.304,0.116,0.557,0.349,0.758S209.662,453.543,210.002,453.543z"/>
	<path fill="#373D41" d="M219.509,454.857c-0.546,0-1.024-0.123-1.436-0.368c-0.411-0.246-0.732-0.579-0.965-0.999v4.09h-1.797
		v-9.883h1.568v1.207c0.26-0.411,0.595-0.735,1.006-0.973c0.411-0.236,0.885-0.355,1.422-0.355c0.474,0,0.911,0.097,1.313,0.289
		s0.749,0.451,1.039,0.777c0.291,0.326,0.519,0.711,0.685,1.153c0.165,0.442,0.248,0.909,0.248,1.401
		c0,0.51-0.076,0.987-0.229,1.435s-0.364,0.836-0.637,1.167c-0.272,0.33-0.599,0.59-0.979,0.777S219.955,454.857,219.509,454.857z
		 M218.918,453.329c0.269,0,0.517-0.058,0.744-0.175c0.229-0.115,0.423-0.272,0.584-0.469s0.286-0.425,0.375-0.684
		c0.09-0.26,0.135-0.527,0.135-0.805c0-0.295-0.05-0.57-0.147-0.825c-0.099-0.255-0.235-0.476-0.409-0.663
		c-0.175-0.188-0.38-0.336-0.617-0.442c-0.237-0.107-0.494-0.161-0.771-0.161c-0.17,0-0.345,0.029-0.523,0.087
		c-0.179,0.059-0.344,0.141-0.496,0.248s-0.288,0.232-0.409,0.376c-0.12,0.143-0.212,0.299-0.274,0.469v1.649
		c0.161,0.402,0.406,0.735,0.737,0.999S218.534,453.329,218.918,453.329z"/>
	<path fill="#373D41" d="M225.716,454.857c-0.34,0-0.657-0.056-0.952-0.167c-0.295-0.112-0.55-0.269-0.764-0.47
		c-0.215-0.201-0.383-0.436-0.503-0.704c-0.121-0.268-0.182-0.562-0.182-0.885c0-0.331,0.074-0.637,0.222-0.919
		c0.147-0.281,0.353-0.521,0.616-0.717s0.579-0.351,0.945-0.463c0.367-0.111,0.77-0.168,1.207-0.168
		c0.313,0,0.619,0.027,0.919,0.081c0.299,0.054,0.565,0.13,0.798,0.228v-0.402c0-0.464-0.132-0.822-0.396-1.072
		s-0.655-0.376-1.174-0.376c-0.375,0-0.742,0.067-1.1,0.201c-0.357,0.135-0.724,0.331-1.1,0.591l-0.55-1.141
		c0.903-0.599,1.878-0.898,2.924-0.898c1.01,0,1.794,0.248,2.354,0.745c0.559,0.496,0.838,1.213,0.838,2.151v2.186
		c0,0.188,0.035,0.322,0.107,0.402c0.071,0.081,0.196,0.126,0.375,0.135v1.528c-0.17,0.035-0.328,0.061-0.476,0.074
		c-0.147,0.013-0.275,0.02-0.383,0.02c-0.34-0.009-0.599-0.087-0.777-0.234s-0.291-0.347-0.335-0.597l-0.041-0.389
		c-0.312,0.411-0.692,0.724-1.14,0.938C226.703,454.75,226.226,454.857,225.716,454.857z M226.226,453.543
		c0.304,0,0.592-0.054,0.864-0.161c0.273-0.107,0.485-0.25,0.638-0.429c0.196-0.152,0.295-0.322,0.295-0.51v-0.805
		c-0.215-0.08-0.447-0.146-0.697-0.194c-0.251-0.049-0.492-0.074-0.725-0.074c-0.465,0-0.845,0.105-1.14,0.315
		s-0.442,0.476-0.442,0.798c0,0.304,0.116,0.557,0.349,0.758S225.886,453.543,226.226,453.543z"/>
	<path fill="#373D41" d="M231.106,451.21c0-0.492,0.085-0.957,0.255-1.395c0.17-0.438,0.416-0.823,0.738-1.153
		c0.321-0.331,0.71-0.595,1.166-0.791c0.456-0.197,0.97-0.296,1.542-0.296c0.769,0,1.424,0.166,1.965,0.497
		c0.54,0.33,0.945,0.764,1.213,1.3l-1.756,0.537c-0.152-0.26-0.354-0.458-0.604-0.597c-0.251-0.139-0.527-0.208-0.832-0.208
		c-0.259,0-0.5,0.052-0.724,0.154s-0.418,0.246-0.583,0.429c-0.166,0.184-0.295,0.404-0.39,0.664
		c-0.094,0.259-0.141,0.545-0.141,0.858c0,0.312,0.05,0.599,0.147,0.857c0.099,0.26,0.23,0.483,0.396,0.671
		c0.166,0.188,0.36,0.333,0.584,0.436c0.223,0.103,0.46,0.154,0.71,0.154c0.322,0,0.619-0.08,0.893-0.241
		c0.272-0.161,0.462-0.357,0.569-0.59l1.757,0.536c-0.241,0.536-0.64,0.975-1.193,1.314c-0.555,0.34-1.221,0.509-1.998,0.509
		c-0.572,0-1.086-0.099-1.542-0.295s-0.845-0.462-1.167-0.798c-0.321-0.335-0.569-0.724-0.744-1.166
		C231.194,452.156,231.106,451.693,231.106,451.21z"/>
	<path fill="#373D41" d="M239.099,446.718v-1.783h1.797v1.783H239.099z M239.099,454.723v-7.026h1.797v7.026H239.099z"/>
	<path fill="#373D41" d="M246.715,454.361c-0.241,0.107-0.539,0.215-0.892,0.322c-0.354,0.107-0.722,0.161-1.106,0.161
		c-0.25,0-0.485-0.032-0.704-0.095c-0.219-0.062-0.411-0.162-0.576-0.301c-0.166-0.139-0.298-0.317-0.396-0.537
		c-0.099-0.219-0.147-0.484-0.147-0.798v-4.036h-0.912v-1.381h0.912v-2.279h1.797v2.279h1.488v1.381h-1.488v3.433
		c0,0.251,0.066,0.428,0.201,0.53c0.134,0.103,0.295,0.154,0.482,0.154s0.371-0.031,0.55-0.094s0.321-0.116,0.429-0.161
		L246.715,454.361z"/>
	<path fill="#373D41" d="M247.667,456.091c0.161,0.044,0.309,0.075,0.442,0.094c0.134,0.018,0.25,0.026,0.349,0.026
		c0.116,0,0.219-0.02,0.309-0.061c0.089-0.04,0.177-0.113,0.262-0.221s0.169-0.257,0.255-0.449c0.084-0.192,0.176-0.445,0.274-0.758
		l-2.789-7.026h1.851l1.917,5.471l1.689-5.471h1.69l-2.964,8.421c-0.188,0.536-0.487,0.95-0.898,1.24s-0.89,0.436-1.435,0.436
		c-0.313,0-0.63-0.049-0.952-0.147V456.091z"/>
</g>
<rect x="607.748" y="442.24" fill="#E9EEF1" width="64.775" height="20.101"/>
<g>
	<path fill="#373D41" d="M615.225,452.55c0-0.581,0.104-1.155,0.309-1.724c0.206-0.567,0.503-1.074,0.892-1.521
		s0.865-0.809,1.429-1.086c0.562-0.277,1.206-0.416,1.931-0.416c0.849,0,1.584,0.192,2.206,0.577
		c0.621,0.384,1.079,0.885,1.374,1.501l-1.421,0.979c-0.107-0.269-0.246-0.494-0.416-0.678c-0.17-0.183-0.355-0.328-0.557-0.436
		s-0.409-0.186-0.623-0.234c-0.215-0.049-0.421-0.074-0.617-0.074c-0.438,0-0.822,0.094-1.153,0.282
		c-0.331,0.188-0.605,0.431-0.824,0.73c-0.22,0.3-0.385,0.64-0.496,1.02c-0.112,0.38-0.168,0.757-0.168,1.133
		c0,0.42,0.064,0.824,0.194,1.213c0.13,0.39,0.312,0.731,0.55,1.026c0.236,0.295,0.521,0.532,0.852,0.711
		c0.33,0.179,0.692,0.268,1.086,0.268c0.206,0,0.416-0.026,0.63-0.08c0.215-0.054,0.423-0.139,0.624-0.255s0.387-0.266,0.557-0.449
		s0.309-0.404,0.415-0.664l1.516,0.872c-0.144,0.357-0.351,0.673-0.623,0.945c-0.273,0.272-0.584,0.503-0.933,0.69
		s-0.715,0.331-1.1,0.429c-0.384,0.099-0.764,0.147-1.14,0.147c-0.661,0-1.267-0.143-1.816-0.429s-1.024-0.659-1.422-1.12
		c-0.397-0.46-0.706-0.982-0.925-1.568C615.334,453.755,615.225,453.159,615.225,452.55z"/>
	<path fill="#373D41" d="M627.775,457.511c-0.571,0-1.086-0.099-1.542-0.295c-0.455-0.196-0.843-0.462-1.159-0.798
		c-0.317-0.335-0.562-0.722-0.731-1.159c-0.17-0.438-0.255-0.898-0.255-1.382c0-0.491,0.085-0.956,0.255-1.395
		c0.17-0.438,0.414-0.824,0.731-1.159c0.316-0.336,0.704-0.602,1.159-0.798c0.456-0.197,0.971-0.296,1.542-0.296
		c0.572,0,1.084,0.099,1.536,0.296c0.451,0.196,0.835,0.462,1.152,0.798c0.317,0.335,0.562,0.722,0.731,1.159
		c0.17,0.438,0.255,0.903,0.255,1.395c0,0.483-0.085,0.943-0.255,1.382c-0.17,0.438-0.411,0.824-0.725,1.159
		c-0.312,0.336-0.697,0.602-1.153,0.798C628.862,457.413,628.348,457.511,627.775,457.511z M625.938,453.877
		c0,0.313,0.047,0.597,0.141,0.852c0.095,0.255,0.224,0.477,0.39,0.664c0.165,0.188,0.359,0.333,0.583,0.436
		s0.465,0.154,0.724,0.154c0.26,0,0.501-0.052,0.725-0.154s0.418-0.248,0.583-0.436s0.295-0.411,0.389-0.671
		c0.095-0.259,0.142-0.545,0.142-0.857c0-0.305-0.047-0.586-0.142-0.846c-0.094-0.259-0.224-0.482-0.389-0.67
		s-0.359-0.333-0.583-0.436s-0.465-0.154-0.725-0.154c-0.259,0-0.5,0.054-0.724,0.161c-0.224,0.106-0.418,0.254-0.583,0.442
		c-0.166,0.188-0.295,0.411-0.39,0.67C625.985,453.292,625.938,453.574,625.938,453.877z"/>
	<path fill="#373D41" d="M638.624,457.377h-1.797v-3.942c0-0.563-0.099-0.974-0.295-1.233c-0.197-0.259-0.47-0.389-0.818-0.389
		c-0.179,0-0.362,0.035-0.55,0.107c-0.188,0.071-0.364,0.172-0.529,0.302c-0.166,0.129-0.315,0.283-0.449,0.462
		s-0.232,0.376-0.295,0.59v4.104h-1.797v-7.026h1.622v1.301c0.26-0.447,0.635-0.796,1.127-1.046c0.491-0.25,1.046-0.376,1.662-0.376
		c0.438,0,0.796,0.081,1.073,0.242c0.276,0.16,0.491,0.371,0.644,0.63c0.151,0.26,0.257,0.555,0.315,0.885
		c0.058,0.331,0.087,0.666,0.087,1.006V457.377z"/>
	<path fill="#373D41" d="M643.854,457.015c-0.241,0.107-0.539,0.215-0.892,0.322c-0.354,0.107-0.722,0.161-1.106,0.161
		c-0.25,0-0.485-0.032-0.704-0.095c-0.219-0.062-0.411-0.162-0.576-0.301c-0.166-0.139-0.298-0.317-0.396-0.537
		c-0.099-0.219-0.147-0.484-0.147-0.798v-4.036h-0.912v-1.381h0.912v-2.279h1.797v2.279h1.488v1.381h-1.488v3.433
		c0,0.251,0.066,0.428,0.201,0.53c0.134,0.103,0.295,0.154,0.482,0.154s0.371-0.031,0.55-0.094s0.321-0.116,0.429-0.161
		L643.854,457.015z"/>
	<path fill="#373D41" d="M648.667,451.907c-0.546,0.009-1.032,0.114-1.462,0.315c-0.429,0.2-0.737,0.502-0.925,0.904v4.251h-1.797
		v-7.026h1.649v1.502c0.241-0.482,0.557-0.872,0.945-1.167s0.798-0.442,1.227-0.442c0.099,0,0.172,0.003,0.222,0.007
		c0.049,0.005,0.096,0.012,0.141,0.021V451.907z"/>
	<path fill="#373D41" d="M652.394,457.511c-0.571,0-1.086-0.099-1.542-0.295c-0.455-0.196-0.843-0.462-1.159-0.798
		c-0.317-0.335-0.562-0.722-0.731-1.159c-0.17-0.438-0.255-0.898-0.255-1.382c0-0.491,0.085-0.956,0.255-1.395
		c0.17-0.438,0.414-0.824,0.731-1.159c0.316-0.336,0.704-0.602,1.159-0.798c0.456-0.197,0.971-0.296,1.542-0.296
		c0.572,0,1.084,0.099,1.536,0.296c0.451,0.196,0.835,0.462,1.152,0.798c0.317,0.335,0.562,0.722,0.731,1.159
		c0.17,0.438,0.255,0.903,0.255,1.395c0,0.483-0.085,0.943-0.255,1.382c-0.17,0.438-0.411,0.824-0.725,1.159
		c-0.312,0.336-0.697,0.602-1.153,0.798C653.48,457.413,652.966,457.511,652.394,457.511z M650.557,453.877
		c0,0.313,0.047,0.597,0.141,0.852c0.095,0.255,0.224,0.477,0.39,0.664c0.165,0.188,0.359,0.333,0.583,0.436
		s0.465,0.154,0.724,0.154c0.26,0,0.501-0.052,0.725-0.154s0.418-0.248,0.583-0.436s0.295-0.411,0.389-0.671
		c0.095-0.259,0.142-0.545,0.142-0.857c0-0.305-0.047-0.586-0.142-0.846c-0.094-0.259-0.224-0.482-0.389-0.67
		s-0.359-0.333-0.583-0.436s-0.465-0.154-0.725-0.154c-0.259,0-0.5,0.054-0.724,0.161c-0.224,0.106-0.418,0.254-0.583,0.442
		c-0.166,0.188-0.295,0.411-0.39,0.67C650.604,453.292,650.557,453.574,650.557,453.877z"/>
	<path fill="#373D41" d="M656.967,447.589h1.797v7.455c0,0.545,0.246,0.817,0.737,0.817c0.099,0,0.213-0.018,0.342-0.054
		c0.13-0.035,0.253-0.075,0.369-0.12l0.241,1.435c-0.241,0.116-0.522,0.206-0.845,0.269c-0.321,0.062-0.612,0.094-0.871,0.094
		c-0.563,0-0.999-0.149-1.308-0.449s-0.463-0.727-0.463-1.28V447.589z"/>
</g>
<g>
	<path fill="#373D41" d="M478.955,216.943v2.949l-14.389,30.099h-4.626l14.337-29.234v-0.102H458.11v-3.711H478.955z"/>
	<path fill="#373D41" d="M501.48,233.11c0,11.236-4.169,17.439-11.49,17.439c-6.457,0-10.83-6.05-10.932-16.981
		c0-11.084,4.779-17.185,11.49-17.185C497.515,216.383,501.48,222.586,501.48,233.11z M483.533,233.619
		c0,8.592,2.644,13.473,6.711,13.473c4.576,0,6.762-5.338,6.762-13.778c0-8.135-2.084-13.473-6.711-13.473
		C486.38,219.841,483.533,224.62,483.533,233.619z"/>
	<path fill="#373D41" d="M526.605,233.11c0,11.236-4.169,17.439-11.49,17.439c-6.457,0-10.83-6.05-10.932-16.981
		c0-11.084,4.779-17.185,11.49-17.185C522.64,216.383,526.605,222.586,526.605,233.11z M508.658,233.619
		c0,8.592,2.644,13.473,6.711,13.473c4.576,0,6.762-5.338,6.762-13.778c0-8.135-2.084-13.473-6.711-13.473
		C511.505,219.841,508.658,224.62,508.658,233.619z"/>
</g>
<g>
	<text transform="matrix(1 0 0 1 543.1533 249.9868)" fill="#373D41" font-family="'NBTypewriterPro-Fett'" font-size="20.8904">kg</text>
</g>
<path fill="#373D41" d="M948.119,486.393h-0.205l-11.6,6.262l-1.745-6.878l14.576-7.801h7.698v66.72h-8.725V486.393z"/>
<path fill="#373D41" d="M965.091,527.759c0-8.417,5.029-14.37,13.241-17.86l-0.103-0.308c-7.391-3.49-10.572-9.238-10.572-14.986
	c0-10.573,8.93-17.758,20.632-17.758c12.934,0,19.399,8.108,19.399,16.423c0,5.646-2.771,11.702-10.982,15.603v0.308
	c8.314,3.285,13.446,9.136,13.446,17.245c0,11.599-9.957,19.399-22.685,19.399C973.508,545.825,965.091,537.51,965.091,527.759z
	 M1001.017,527.349c0-8.109-5.646-12.01-14.678-14.576c-7.802,2.258-12.01,7.391-12.01,13.755
	c-0.308,6.774,4.824,12.728,13.344,12.728C995.782,539.255,1001.017,534.226,1001.017,527.349z M976.177,493.989
	c0,6.672,5.029,10.265,12.728,12.317c5.749-1.95,10.162-6.056,10.162-12.112c0-5.337-3.182-10.88-11.291-10.88
	C980.282,483.314,976.177,488.241,976.177,493.989z"/>
<path fill="#373D41" d="M1060.818,510.618c0,22.685-8.417,35.207-23.198,35.207c-13.035,0-21.863-12.215-22.068-34.283
	c0-22.377,9.648-34.694,23.198-34.694C1052.812,476.847,1060.818,489.37,1060.818,510.618z M1024.585,511.644
	c0,17.347,5.337,27.201,13.549,27.201c9.238,0,13.652-10.778,13.652-27.817c0-16.423-4.209-27.201-13.55-27.201
	C1030.333,483.827,1024.585,493.475,1024.585,511.644z"/>
<path fill="#373D41" d="M1084.814,488.447c0,7.546-5.228,10.835-10.161,10.835c-5.522,0-9.78-4.048-9.78-10.498
	c0-6.83,4.469-10.835,10.118-10.835C1080.852,477.949,1084.814,482.207,1084.814,488.447z M1068.625,488.658
	c0,4.469,2.571,7.842,6.197,7.842c3.542,0,6.197-3.331,6.197-7.927c0-3.457-1.729-7.842-6.113-7.842
	C1070.522,480.731,1068.625,484.779,1068.625,488.658z"/>
<rect x="930.792" y="441.942" fill="#E9EEF1" width="132.042" height="18.152"/>
<rect x="930.792" y="557.118" fill="#E9EEF1" width="169.037" height="18.151"/>
<rect x="134.161" y="560.006" fill="#E9EEF1" width="243.903" height="18.153"/>
<rect x="854.176" y="220.405" fill="#E9EEF1" width="126.426" height="18.153"/>
<rect x="989.379" y="220.402" fill="#373D41" width="50.158" height="18.153"/>
<g>
	<g>
		<path fill="#373D41" d="M943.928,448.76c-0.062-0.062-0.177-0.147-0.342-0.255c-0.166-0.107-0.367-0.212-0.604-0.315
			c-0.237-0.103-0.494-0.189-0.771-0.261c-0.276-0.071-0.559-0.107-0.845-0.107c-0.509,0-0.89,0.094-1.14,0.281
			s-0.375,0.452-0.375,0.791c0,0.197,0.047,0.36,0.141,0.49c0.094,0.129,0.23,0.243,0.409,0.342s0.404,0.188,0.677,0.268
			c0.272,0.081,0.588,0.166,0.945,0.255c0.465,0.125,0.888,0.26,1.268,0.402c0.38,0.144,0.701,0.322,0.965,0.536
			c0.264,0.215,0.468,0.472,0.61,0.771s0.215,0.668,0.215,1.106c0,0.509-0.097,0.945-0.288,1.307
			c-0.192,0.362-0.449,0.655-0.771,0.879c-0.321,0.224-0.697,0.387-1.126,0.489c-0.43,0.103-0.877,0.154-1.341,0.154
			c-0.716,0-1.422-0.107-2.119-0.322c-0.697-0.214-1.323-0.518-1.877-0.911l0.817-1.596c0.081,0.08,0.226,0.186,0.437,0.314
			c0.21,0.13,0.458,0.26,0.744,0.39c0.286,0.129,0.604,0.239,0.952,0.328c0.349,0.09,0.706,0.134,1.072,0.134
			c1.02,0,1.528-0.326,1.528-0.979c0-0.215-0.058-0.394-0.174-0.536c-0.116-0.144-0.281-0.269-0.496-0.376s-0.474-0.205-0.778-0.295
			c-0.304-0.089-0.644-0.183-1.019-0.281c-0.456-0.125-0.852-0.262-1.187-0.409c-0.336-0.147-0.615-0.319-0.838-0.517
			c-0.224-0.196-0.392-0.429-0.503-0.697c-0.112-0.268-0.168-0.585-0.168-0.952c0-0.482,0.089-0.911,0.269-1.287
			c0.179-0.375,0.427-0.688,0.744-0.938c0.316-0.25,0.686-0.44,1.105-0.569c0.421-0.13,0.872-0.195,1.354-0.195
			c0.671,0,1.287,0.105,1.851,0.315s1.055,0.458,1.476,0.744L943.928,448.76z"/>
		<path fill="#373D41" d="M954.963,448.76h1.717l-2.937,7.026h-1.476l-1.207-3.084l-1.193,3.084h-1.475l-2.937-7.026h1.703
			l2.092,5.337l0.858-2.279l-1.234-3.044h1.448l0.737,2.158l0.751-2.158h1.448l-1.22,3.044l0.845,2.279L954.963,448.76z"/>
		<path fill="#373D41" d="M957.739,447.782v-1.783h1.797v1.783H957.739z M957.739,455.787v-7.026h1.797v7.026H957.739z"/>
		<path fill="#373D41" d="M963.195,455.787l-2.588-7.026h1.851l1.783,5.564l1.797-5.564h1.689l-2.588,7.026H963.195z"/>
		<path fill="#373D41" d="M972.086,455.92c-0.563,0-1.072-0.096-1.528-0.288s-0.845-0.453-1.167-0.784
			c-0.321-0.331-0.569-0.715-0.744-1.153c-0.174-0.438-0.262-0.898-0.262-1.381c0-0.501,0.085-0.973,0.255-1.415
			s0.416-0.831,0.738-1.166c0.321-0.336,0.712-0.602,1.173-0.798c0.46-0.197,0.977-0.296,1.549-0.296s1.084,0.099,1.535,0.296
			c0.451,0.196,0.836,0.46,1.153,0.791c0.317,0.33,0.559,0.715,0.724,1.153c0.166,0.438,0.248,0.894,0.248,1.367
			c0,0.116-0.002,0.228-0.006,0.335c-0.005,0.107-0.017,0.197-0.034,0.269h-5.431c0.027,0.277,0.094,0.522,0.201,0.737
			s0.246,0.398,0.416,0.55c0.17,0.152,0.362,0.269,0.576,0.349c0.215,0.08,0.438,0.121,0.671,0.121c0.357,0,0.694-0.088,1.012-0.262
			c0.317-0.175,0.534-0.404,0.65-0.69l1.542,0.429c-0.259,0.536-0.672,0.977-1.24,1.321
			C973.55,455.749,972.873,455.92,972.086,455.92z M973.91,451.683c-0.045-0.527-0.239-0.949-0.584-1.267
			c-0.344-0.317-0.762-0.477-1.254-0.477c-0.241,0-0.467,0.043-0.677,0.128s-0.396,0.203-0.557,0.355
			c-0.161,0.151-0.293,0.335-0.396,0.55c-0.103,0.214-0.163,0.451-0.181,0.71H973.91z"/>
		<path fill="#373D41" d="M977.047,445.999h1.797v7.455c0,0.545,0.246,0.817,0.737,0.817c0.099,0,0.213-0.018,0.342-0.054
			c0.13-0.035,0.253-0.075,0.369-0.12l0.241,1.435c-0.241,0.116-0.522,0.206-0.845,0.269c-0.321,0.062-0.612,0.094-0.871,0.094
			c-0.563,0-0.999-0.149-1.308-0.449s-0.463-0.727-0.463-1.28V445.999z"/>
		<path fill="#373D41" d="M981.499,445.999h1.797v7.455c0,0.545,0.246,0.817,0.737,0.817c0.099,0,0.213-0.018,0.342-0.054
			c0.13-0.035,0.253-0.075,0.369-0.12l0.241,1.435c-0.241,0.116-0.522,0.206-0.845,0.269c-0.321,0.062-0.612,0.094-0.871,0.094
			c-0.563,0-0.999-0.149-1.308-0.449s-0.463-0.727-0.463-1.28V445.999z"/>
		<path fill="#373D41" d="M985.964,447.782v-1.783h1.797v1.783H985.964z M985.964,455.787v-7.026h1.797v7.026H985.964z"/>
		<path fill="#373D41" d="M996.088,455.787h-1.797v-3.942c0-0.563-0.099-0.974-0.295-1.233c-0.197-0.259-0.47-0.389-0.818-0.389
			c-0.179,0-0.362,0.035-0.55,0.107c-0.188,0.071-0.364,0.172-0.529,0.302c-0.166,0.129-0.315,0.283-0.449,0.462
			s-0.232,0.376-0.295,0.59v4.104h-1.797v-7.026h1.622v1.301c0.26-0.447,0.635-0.796,1.127-1.046
			c0.491-0.25,1.046-0.376,1.662-0.376c0.438,0,0.796,0.081,1.073,0.242c0.276,0.16,0.491,0.371,0.644,0.63
			c0.151,0.26,0.257,0.555,0.315,0.885c0.058,0.331,0.087,0.666,0.087,1.006V455.787z"/>
		<path fill="#373D41" d="M1000.58,455.827c-0.465,0-0.892-0.094-1.281-0.281c-0.389-0.188-0.722-0.444-0.999-0.771
			c-0.276-0.326-0.491-0.704-0.644-1.133c-0.151-0.429-0.228-0.885-0.228-1.367c0-0.51,0.08-0.983,0.241-1.422
			c0.161-0.438,0.385-0.822,0.671-1.153c0.285-0.33,0.628-0.59,1.025-0.777s0.838-0.282,1.321-0.282
			c0.554,0,1.036,0.123,1.447,0.369s0.747,0.574,1.006,0.985v-1.233h1.569v6.691c0,0.519-0.097,0.983-0.288,1.395
			c-0.192,0.411-0.463,0.76-0.812,1.046s-0.76,0.505-1.233,0.657c-0.475,0.151-0.992,0.228-1.556,0.228
			c-0.778,0-1.429-0.127-1.951-0.382c-0.523-0.255-0.972-0.615-1.348-1.08l0.979-0.952c0.269,0.331,0.605,0.591,1.013,0.778
			c0.406,0.188,0.843,0.281,1.308,0.281c0.276,0,0.543-0.038,0.798-0.114c0.255-0.075,0.478-0.194,0.67-0.354
			c0.192-0.161,0.345-0.367,0.456-0.617c0.112-0.25,0.168-0.545,0.168-0.885v-0.886c-0.232,0.402-0.559,0.714-0.979,0.933
			C1001.514,455.717,1001.062,455.827,1000.58,455.827z M1001.196,454.392c0.197,0,0.385-0.031,0.563-0.094s0.342-0.147,0.489-0.255
			s0.279-0.232,0.396-0.375c0.116-0.144,0.206-0.296,0.269-0.456v-1.677c-0.161-0.411-0.411-0.741-0.751-0.992
			c-0.34-0.25-0.697-0.375-1.073-0.375c-0.276,0-0.529,0.061-0.757,0.181c-0.229,0.121-0.423,0.282-0.584,0.482
			c-0.16,0.201-0.283,0.432-0.368,0.691c-0.085,0.259-0.128,0.527-0.128,0.804c0,0.287,0.05,0.555,0.147,0.805
			c0.099,0.251,0.235,0.47,0.409,0.657c0.175,0.188,0.38,0.335,0.617,0.442C1000.662,454.338,1000.919,454.392,1001.196,454.392z"/>
		<path fill="#373D41" d="M1010.113,455.787v-9.521h4.211c0.438,0,0.842,0.092,1.213,0.275c0.371,0.183,0.69,0.424,0.959,0.724
			s0.479,0.64,0.63,1.02c0.152,0.38,0.229,0.762,0.229,1.146c0,0.616-0.154,1.178-0.463,1.683s-0.727,0.869-1.254,1.093l2.239,3.58
			h-2.092l-1.998-3.191h-1.823v3.191H1010.113z M1011.964,450.973h2.319c0.17,0,0.329-0.041,0.477-0.121s0.274-0.189,0.382-0.328
			s0.192-0.302,0.255-0.49c0.062-0.188,0.094-0.389,0.094-0.603c0-0.224-0.036-0.43-0.107-0.617s-0.167-0.351-0.288-0.489
			c-0.12-0.139-0.26-0.246-0.416-0.322c-0.156-0.075-0.314-0.113-0.476-0.113h-2.239V450.973z"/>
		<path fill="#373D41" d="M1020.935,455.92c-0.34,0-0.657-0.056-0.952-0.167c-0.295-0.112-0.55-0.269-0.764-0.47
			c-0.215-0.201-0.383-0.436-0.503-0.704c-0.121-0.268-0.182-0.562-0.182-0.885c0-0.331,0.074-0.637,0.222-0.919
			c0.147-0.281,0.353-0.521,0.616-0.717s0.579-0.351,0.945-0.463c0.367-0.111,0.77-0.168,1.207-0.168
			c0.313,0,0.619,0.027,0.919,0.081c0.299,0.054,0.565,0.13,0.798,0.228v-0.402c0-0.464-0.132-0.822-0.396-1.072
			s-0.655-0.376-1.174-0.376c-0.375,0-0.742,0.067-1.1,0.201c-0.357,0.135-0.724,0.331-1.1,0.591l-0.55-1.141
			c0.903-0.599,1.878-0.898,2.924-0.898c1.01,0,1.794,0.248,2.354,0.745c0.559,0.496,0.838,1.213,0.838,2.151v2.186
			c0,0.188,0.035,0.322,0.107,0.402c0.071,0.081,0.196,0.126,0.375,0.135v1.528c-0.17,0.035-0.328,0.061-0.476,0.074
			c-0.147,0.013-0.275,0.02-0.383,0.02c-0.34-0.009-0.599-0.087-0.777-0.234s-0.291-0.347-0.335-0.597l-0.041-0.389
			c-0.312,0.411-0.692,0.724-1.14,0.938C1021.922,455.813,1021.444,455.92,1020.935,455.92z M1021.444,454.607
			c0.304,0,0.592-0.054,0.864-0.161c0.273-0.107,0.485-0.25,0.638-0.429c0.196-0.152,0.295-0.322,0.295-0.51v-0.805
			c-0.215-0.08-0.447-0.146-0.697-0.194c-0.251-0.049-0.492-0.074-0.725-0.074c-0.465,0-0.845,0.105-1.14,0.315
			s-0.442,0.476-0.442,0.798c0,0.304,0.116,0.557,0.349,0.758S1021.104,454.607,1021.444,454.607z"/>
		<path fill="#373D41" d="M1033.485,455.787h-1.797v-3.942c0-0.563-0.099-0.974-0.295-1.233c-0.197-0.259-0.47-0.389-0.818-0.389
			c-0.179,0-0.362,0.035-0.55,0.107c-0.188,0.071-0.364,0.172-0.529,0.302c-0.166,0.129-0.315,0.283-0.449,0.462
			s-0.232,0.376-0.295,0.59v4.104h-1.797v-7.026h1.622v1.301c0.26-0.447,0.635-0.796,1.127-1.046
			c0.491-0.25,1.046-0.376,1.662-0.376c0.438,0,0.796,0.081,1.073,0.242c0.276,0.16,0.491,0.371,0.644,0.63
			c0.151,0.26,0.257,0.555,0.315,0.885c0.058,0.331,0.087,0.666,0.087,1.006V455.787z"/>
		<path fill="#373D41" d="M1037.978,455.827c-0.465,0-0.892-0.094-1.281-0.281c-0.389-0.188-0.722-0.444-0.999-0.771
			c-0.276-0.326-0.491-0.704-0.644-1.133c-0.151-0.429-0.228-0.885-0.228-1.367c0-0.51,0.08-0.983,0.241-1.422
			c0.161-0.438,0.385-0.822,0.671-1.153c0.285-0.33,0.628-0.59,1.025-0.777s0.838-0.282,1.321-0.282
			c0.554,0,1.036,0.123,1.447,0.369s0.747,0.574,1.006,0.985v-1.233h1.569v6.691c0,0.519-0.097,0.983-0.288,1.395
			c-0.192,0.411-0.463,0.76-0.812,1.046s-0.76,0.505-1.233,0.657c-0.475,0.151-0.992,0.228-1.556,0.228
			c-0.778,0-1.429-0.127-1.951-0.382c-0.523-0.255-0.972-0.615-1.348-1.08l0.979-0.952c0.269,0.331,0.605,0.591,1.013,0.778
			c0.406,0.188,0.843,0.281,1.308,0.281c0.276,0,0.543-0.038,0.798-0.114c0.255-0.075,0.478-0.194,0.67-0.354
			c0.192-0.161,0.345-0.367,0.456-0.617c0.112-0.25,0.168-0.545,0.168-0.885v-0.886c-0.232,0.402-0.559,0.714-0.979,0.933
			C1038.911,455.717,1038.46,455.827,1037.978,455.827z M1038.594,454.392c0.197,0,0.385-0.031,0.563-0.094s0.342-0.147,0.489-0.255
			s0.279-0.232,0.396-0.375c0.116-0.144,0.206-0.296,0.269-0.456v-1.677c-0.161-0.411-0.411-0.741-0.751-0.992
			c-0.34-0.25-0.697-0.375-1.073-0.375c-0.276,0-0.529,0.061-0.757,0.181c-0.229,0.121-0.423,0.282-0.584,0.482
			c-0.16,0.201-0.283,0.432-0.368,0.691c-0.085,0.259-0.128,0.527-0.128,0.804c0,0.287,0.05,0.555,0.147,0.805
			c0.099,0.251,0.235,0.47,0.409,0.657c0.175,0.188,0.38,0.335,0.617,0.442C1038.06,454.338,1038.316,454.392,1038.594,454.392z"/>
		<path fill="#373D41" d="M1047.188,455.92c-0.563,0-1.072-0.096-1.528-0.288s-0.845-0.453-1.167-0.784
			c-0.321-0.331-0.569-0.715-0.744-1.153c-0.174-0.438-0.262-0.898-0.262-1.381c0-0.501,0.085-0.973,0.255-1.415
			s0.416-0.831,0.738-1.166c0.321-0.336,0.712-0.602,1.173-0.798c0.46-0.197,0.977-0.296,1.549-0.296s1.084,0.099,1.535,0.296
			c0.451,0.196,0.836,0.46,1.153,0.791c0.317,0.33,0.559,0.715,0.724,1.153c0.166,0.438,0.248,0.894,0.248,1.367
			c0,0.116-0.002,0.228-0.006,0.335c-0.005,0.107-0.017,0.197-0.034,0.269h-5.431c0.027,0.277,0.094,0.522,0.201,0.737
			s0.246,0.398,0.416,0.55c0.17,0.152,0.362,0.269,0.576,0.349c0.215,0.08,0.438,0.121,0.671,0.121c0.357,0,0.694-0.088,1.012-0.262
			c0.317-0.175,0.534-0.404,0.65-0.69l1.542,0.429c-0.259,0.536-0.672,0.977-1.24,1.321
			C1048.652,455.749,1047.976,455.92,1047.188,455.92z M1049.013,451.683c-0.045-0.527-0.239-0.949-0.584-1.267
			c-0.344-0.317-0.762-0.477-1.254-0.477c-0.241,0-0.467,0.043-0.677,0.128s-0.396,0.203-0.557,0.355
			c-0.161,0.151-0.293,0.335-0.396,0.55c-0.103,0.214-0.163,0.451-0.181,0.71H1049.013z"/>
	</g>
</g>
<rect x="1105.459" y="557.081" fill="#373D41" width="20.977" height="18.154"/>
<rect x="854.176" y="85.247" fill="#E9EEF1" width="128.325" height="20.088"/>
<g>
	<text transform="matrix(0.583 0 0 0.583 860.8516 99.6646)" fill="#373D41" font-family="'Raleway-Bold'" font-size="23">Maximum Length</text>
</g>
<rect x="840.772" y="71.841" fill="none" stroke="#E9EEF1" stroke-width="0.75" stroke-miterlimit="10" width="212.169" height="314.137"/>
<rect x="445.964" y="165.924" fill="none" stroke="#E9EEF1" stroke-width="0.75" stroke-miterlimit="10" width="135.013" height="186.695"/>
<rect x="119.126" y="333.098" fill="none" stroke="#E9EEF1" stroke-width="0.75" stroke-miterlimit="10" width="342.788" height="258.44"/>
<rect x="917.389" y="276.469" fill="none" stroke="#E9EEF1" stroke-width="0.75" stroke-miterlimit="10" width="222.05" height="312.192"/>
<rect x="595.905" y="372.036" fill="none" stroke="#E9EEF1" stroke-width="0.75" stroke-miterlimit="10" width="184.669" height="215.856"/>
<rect x="794.374" y="286.14" fill="#EF5033" width="146.013" height="141.437"/>
<rect x="309.473" y="298.035" fill="#EF5033" width="276.185" height="77.902"/>
<rect x="738.055" y="293.065" fill="#EF5033" width="56.319" height="120.588"/>
<rect x="458.149" y="179.321" fill="#E9EEF1" width="65.135" height="20.088"/>
<g>
	<g>
		<path fill="#373D41" d="M468.958,184.837h1.703l1.072,3.151l1.073-3.151h1.716l-1.622,4.331l1.207,3.044l2.695-7.402h2.011
			l-3.875,9.521h-1.556l-1.649-3.996l-1.648,3.996h-1.556l-3.862-9.521h1.998l2.709,7.402l1.18-3.044L468.958,184.837z"/>
		<path fill="#373D41" d="M482.876,194.465c-0.563,0-1.072-0.096-1.528-0.289c-0.456-0.192-0.845-0.454-1.167-0.784
			c-0.321-0.331-0.569-0.715-0.744-1.153c-0.174-0.438-0.262-0.898-0.262-1.381c0-0.5,0.085-0.972,0.255-1.415
			s0.416-0.831,0.738-1.167c0.321-0.335,0.712-0.601,1.173-0.798c0.46-0.196,0.977-0.295,1.549-0.295s1.084,0.099,1.535,0.295
			c0.451,0.197,0.836,0.46,1.153,0.791c0.317,0.331,0.559,0.715,0.724,1.153c0.166,0.438,0.248,0.894,0.248,1.368
			c0,0.116-0.002,0.228-0.006,0.335c-0.005,0.107-0.017,0.197-0.034,0.268h-5.431c0.027,0.277,0.094,0.523,0.201,0.737
			c0.107,0.215,0.246,0.398,0.416,0.55c0.17,0.152,0.362,0.268,0.576,0.349c0.215,0.081,0.438,0.121,0.671,0.121
			c0.357,0,0.694-0.087,1.012-0.261s0.534-0.404,0.65-0.69l1.542,0.429c-0.259,0.537-0.672,0.977-1.24,1.321
			C484.34,194.293,483.663,194.465,482.876,194.465z M484.7,190.228c-0.045-0.527-0.239-0.95-0.584-1.267
			c-0.344-0.317-0.762-0.476-1.254-0.476c-0.241,0-0.467,0.042-0.677,0.127s-0.396,0.203-0.557,0.355
			c-0.161,0.152-0.293,0.335-0.396,0.55c-0.103,0.215-0.163,0.452-0.181,0.711H484.7z"/>
		<path fill="#373D41" d="M487.65,186.326v-1.783h1.797v1.783H487.65z M487.65,194.331v-7.026h1.797v7.026H487.65z"/>
		<path fill="#373D41" d="M493.792,194.371c-0.465,0-0.892-0.094-1.281-0.281c-0.389-0.188-0.722-0.445-0.999-0.771
			c-0.276-0.326-0.491-0.704-0.644-1.133c-0.151-0.429-0.228-0.885-0.228-1.368c0-0.509,0.08-0.983,0.241-1.421
			s0.385-0.822,0.671-1.153c0.285-0.331,0.628-0.59,1.025-0.777c0.397-0.188,0.838-0.282,1.321-0.282
			c0.554,0,1.036,0.123,1.447,0.369c0.411,0.246,0.747,0.575,1.006,0.986v-1.234h1.569v6.691c0,0.519-0.097,0.983-0.288,1.395
			c-0.192,0.411-0.463,0.76-0.812,1.046s-0.76,0.505-1.233,0.657c-0.475,0.152-0.992,0.228-1.556,0.228
			c-0.778,0-1.429-0.127-1.951-0.382c-0.523-0.254-0.972-0.615-1.348-1.079l0.979-0.952c0.269,0.331,0.605,0.59,1.013,0.778
			c0.406,0.188,0.843,0.281,1.308,0.281c0.276,0,0.543-0.038,0.798-0.114c0.255-0.076,0.478-0.194,0.67-0.355
			c0.192-0.161,0.345-0.367,0.456-0.617c0.112-0.25,0.168-0.545,0.168-0.885v-0.885c-0.232,0.402-0.559,0.713-0.979,0.932
			C494.726,194.262,494.274,194.371,493.792,194.371z M494.408,192.937c0.197,0,0.385-0.031,0.563-0.094s0.342-0.147,0.489-0.255
			s0.279-0.232,0.396-0.375s0.206-0.295,0.269-0.456v-1.676c-0.161-0.411-0.411-0.742-0.751-0.992
			c-0.34-0.25-0.697-0.375-1.073-0.375c-0.276,0-0.529,0.06-0.757,0.181c-0.229,0.121-0.423,0.282-0.584,0.483
			c-0.16,0.201-0.283,0.431-0.368,0.69s-0.128,0.528-0.128,0.805c0,0.286,0.05,0.554,0.147,0.805
			c0.099,0.25,0.235,0.469,0.409,0.657c0.175,0.188,0.38,0.335,0.617,0.442C493.874,192.883,494.131,192.937,494.408,192.937z"/>
		<path fill="#373D41" d="M506.061,194.331h-1.797v-3.942c0-0.554-0.104-0.963-0.309-1.227c-0.206-0.264-0.496-0.396-0.871-0.396
			c-0.161,0-0.331,0.036-0.51,0.107c-0.179,0.072-0.349,0.172-0.51,0.302c-0.161,0.13-0.309,0.284-0.442,0.462
			c-0.134,0.179-0.232,0.375-0.295,0.59v4.103h-1.797v-9.789h1.797v4.063c0.259-0.456,0.61-0.807,1.053-1.053
			c0.442-0.246,0.932-0.369,1.468-0.369c0.456,0,0.827,0.078,1.113,0.235c0.286,0.156,0.51,0.364,0.67,0.623
			c0.161,0.26,0.272,0.555,0.336,0.885c0.062,0.331,0.094,0.67,0.094,1.019V194.331z"/>
		<path fill="#373D41" d="M511.799,193.969c-0.241,0.107-0.539,0.214-0.892,0.322c-0.354,0.107-0.722,0.161-1.106,0.161
			c-0.25,0-0.485-0.031-0.704-0.094s-0.411-0.163-0.576-0.302c-0.166-0.139-0.298-0.317-0.396-0.536
			c-0.099-0.219-0.147-0.485-0.147-0.798v-4.036h-0.912v-1.381h0.912v-2.279h1.797v2.279h1.488v1.381h-1.488v3.433
			c0,0.25,0.066,0.427,0.201,0.53c0.134,0.103,0.295,0.154,0.482,0.154s0.371-0.031,0.55-0.094s0.321-0.116,0.429-0.161
			L511.799,193.969z"/>
	</g>
</g>
<rect x="458.281" y="259.484" fill="#E9EEF1" width="77.484" height="18.164"/>
<rect x="543.514" y="259.478" fill="#373D41" width="24.059" height="18.165"/>
<g>
	<g>
		<path fill="#373D41" d="M292.436,548.841v-18.773h-32.031v-6.151l30.759-44.017h10.076v42.85h9.651v7.318h-9.651v18.773H292.436z
			 M292.436,522.75v-23.016c0-3.606,0.106-7.213,0.318-10.818h-0.318c-2.121,4.03-3.818,7-5.728,10.182l-16.864,23.44v0.212H292.436
			z"/>
		<path fill="#373D41" d="M354.907,487.749h-26.304l-2.652,17.713c1.592-0.212,3.076-0.425,5.622-0.425
			c5.303,0,10.606,1.167,14.849,3.713c5.409,3.075,9.864,9.015,9.864,17.712c0,13.471-10.713,23.547-25.668,23.547
			c-7.53,0-13.895-2.121-17.182-4.243l2.333-7.105c2.863,1.696,8.485,3.817,14.743,3.817c8.803,0,16.334-5.727,16.334-14.954
			c-0.106-8.91-6.046-15.273-19.834-15.273c-3.925,0-7.001,0.424-9.546,0.742l4.454-33.092h32.986V487.749z"/>
	</g>
</g>
<g>
	<g>
		<path fill="#373D41" d="M136.373,538.805c2.651,1.697,8.804,4.349,15.273,4.349c11.985,0,15.697-7.636,15.592-13.363
			c-0.106-9.652-8.804-13.789-17.819-13.789h-5.197v-7h5.197c6.788,0,15.38-3.5,15.38-11.667c0-5.515-3.501-10.395-12.092-10.395
			c-5.516,0-10.818,2.439-13.788,4.562l-2.439-6.788c3.606-2.652,10.606-5.304,18.03-5.304c13.576,0,19.729,8.062,19.729,16.44
			c0,7.105-4.243,13.151-12.728,16.228v0.212c8.484,1.697,15.379,8.061,15.379,17.713c0,11.03-8.591,20.683-25.137,20.683
			c-7.743,0-14.531-2.439-17.925-4.667L136.373,538.805z"/>
		<path fill="#373D41" d="M221.224,488.425H194.92l-2.652,17.713c1.592-0.212,3.076-0.425,5.622-0.425
			c5.303,0,10.606,1.167,14.849,3.713c5.409,3.075,9.864,9.015,9.864,17.712c0,13.471-10.713,23.547-25.668,23.547
			c-7.53,0-13.895-2.121-17.182-4.243l2.333-7.106c2.863,1.697,8.485,3.818,14.743,3.818c8.803,0,16.334-5.727,16.334-14.954
			c-0.106-8.91-6.046-15.273-19.834-15.273c-3.925,0-7.001,0.424-9.546,0.742l4.454-33.092h32.986V488.425z"/>
		<path fill="#373D41" d="M255.057,517.38v6.895h-26.198v-6.895H255.057z"/>
	</g>
</g>
<rect x="601.064" y="539.773" fill="#EF5033" width="174.683" height="92.764"/>
<g>
	<g>
		<path fill="#373D41" d="M384.046,527.393h2.595v17.919h8.587v2.177h-11.182V527.393z"/>
		<path fill="#373D41" d="M400.952,529.003c0.029,0.895-0.626,1.609-1.67,1.609c-0.924,0-1.58-0.715-1.58-1.609
			c0-0.925,0.686-1.641,1.64-1.641C400.326,527.363,400.952,528.079,400.952,529.003z M398.03,547.489v-14.431h2.624v14.431H398.03z
			"/>
		<path fill="#373D41" d="M408.167,528.914v4.145h3.757v1.997h-3.757v7.782c0,1.789,0.507,2.803,1.968,2.803
			c0.686,0,1.192-0.09,1.521-0.179l0.119,1.968c-0.507,0.209-1.312,0.357-2.325,0.357c-1.223,0-2.206-0.388-2.833-1.103
			c-0.745-0.775-1.014-2.058-1.014-3.757v-7.872h-2.235v-1.997h2.235v-3.459L408.167,528.914z"/>
		<path fill="#373D41" d="M416.158,540.75c0.06,3.548,2.325,5.009,4.949,5.009c1.878,0,3.012-0.328,3.995-0.745l0.447,1.878
			c-0.924,0.418-2.504,0.895-4.8,0.895c-4.443,0-7.097-2.922-7.097-7.274c0-4.354,2.564-7.782,6.769-7.782
			c4.711,0,5.963,4.145,5.963,6.798c0,0.537-0.06,0.954-0.09,1.223H416.158z M423.851,538.872c0.029-1.669-0.686-4.263-3.638-4.263
			c-2.653,0-3.816,2.444-4.025,4.263H423.851z"/>
		<path fill="#373D41" d="M429.636,537.56c0-1.699-0.03-3.16-0.119-4.502h2.296l0.089,2.832h0.119
			c0.656-1.938,2.236-3.16,3.995-3.16c0.299,0,0.508,0.03,0.746,0.09v2.475c-0.269-0.06-0.537-0.09-0.895-0.09
			c-1.849,0-3.16,1.401-3.519,3.369c-0.06,0.358-0.119,0.775-0.119,1.223v7.692h-2.594V537.56z"/>
		<path fill="#373D41" d="M439.027,544.805c0.775,0.507,2.147,1.044,3.459,1.044c1.908,0,2.803-0.954,2.803-2.146
			c0-1.253-0.745-1.938-2.684-2.654c-2.594-0.924-3.816-2.355-3.816-4.085c0-2.325,1.879-4.233,4.979-4.233
			c1.461,0,2.743,0.417,3.548,0.895l-0.656,1.908c-0.566-0.357-1.609-0.835-2.951-0.835c-1.551,0-2.415,0.895-2.415,1.968
			c0,1.192,0.864,1.729,2.743,2.445c2.504,0.954,3.786,2.206,3.786,4.353c0,2.534-1.968,4.323-5.396,4.323
			c-1.58,0-3.041-0.388-4.055-0.983L439.027,544.805z"/>
	</g>
</g>
<rect x="384.849" y="559.992" fill="#373D41" width="62.866" height="18.154"/>
<g>
	<g>
		<path fill="#E9EEF1" d="M609.046,484.387v-10.265h4.323c0.442,0,0.853,0.095,1.229,0.282c0.376,0.188,0.698,0.434,0.969,0.737
			c0.27,0.304,0.479,0.648,0.629,1.034c0.149,0.385,0.224,0.775,0.224,1.171c0,0.376-0.056,0.734-0.166,1.076
			c-0.111,0.343-0.268,0.651-0.47,0.926s-0.443,0.506-0.723,0.693c-0.28,0.188-0.593,0.316-0.94,0.384l2.53,3.961h-1.142
			l-2.429-3.788h-3.036v3.788H609.046z M610.044,479.704h3.368c0.299,0,0.571-0.065,0.816-0.195c0.246-0.13,0.456-0.306,0.629-0.528
			c0.174-0.221,0.309-0.472,0.405-0.751c0.096-0.279,0.145-0.573,0.145-0.882s-0.056-0.605-0.166-0.89
			c-0.111-0.284-0.261-0.532-0.448-0.744c-0.188-0.212-0.41-0.381-0.665-0.506c-0.256-0.125-0.523-0.188-0.803-0.188h-3.281V479.704
			z"/>
		<path fill="#E9EEF1" d="M621.638,484.532c-0.55,0-1.056-0.104-1.518-0.311c-0.463-0.207-0.863-0.492-1.2-0.854
			c-0.338-0.361-0.601-0.778-0.788-1.25c-0.188-0.473-0.282-0.979-0.282-1.519c0-0.529,0.095-1.028,0.282-1.496
			c0.188-0.467,0.45-0.877,0.788-1.229c0.337-0.352,0.734-0.631,1.192-0.839c0.458-0.207,0.962-0.311,1.511-0.311
			c0.55,0,1.053,0.104,1.511,0.311c0.458,0.208,0.851,0.489,1.179,0.846c0.327,0.357,0.583,0.767,0.766,1.229
			c0.184,0.462,0.274,0.954,0.274,1.475c0,0.077-0.002,0.154-0.007,0.23c-0.005,0.078-0.012,0.131-0.021,0.159h-6.434
			c0.029,0.405,0.123,0.778,0.282,1.121c0.159,0.342,0.361,0.639,0.607,0.889c0.245,0.251,0.529,0.446,0.853,0.586
			s0.667,0.209,1.034,0.209c0.25,0,0.496-0.033,0.737-0.101c0.24-0.067,0.462-0.159,0.664-0.275
			c0.203-0.115,0.384-0.258,0.543-0.426c0.158-0.169,0.281-0.354,0.368-0.557l0.854,0.231c-0.116,0.279-0.28,0.532-0.492,0.759
			s-0.458,0.424-0.737,0.593c-0.279,0.168-0.588,0.299-0.925,0.39C622.341,484.486,621.994,484.532,621.638,484.532z
			 M624.413,480.224c-0.028-0.405-0.123-0.773-0.281-1.106c-0.159-0.332-0.362-0.619-0.607-0.86c-0.246-0.24-0.533-0.429-0.86-0.563
			c-0.328-0.135-0.675-0.202-1.041-0.202s-0.713,0.067-1.041,0.202c-0.327,0.135-0.614,0.323-0.86,0.563
			c-0.245,0.241-0.443,0.53-0.593,0.867c-0.149,0.338-0.238,0.704-0.267,1.1H624.413z"/>
		<path fill="#E9EEF1" d="M638.032,484.387h-0.983v-4.207c0-0.877-0.138-1.522-0.412-1.938c-0.274-0.414-0.691-0.621-1.251-0.621
			c-0.289,0-0.562,0.053-0.816,0.159c-0.256,0.105-0.491,0.255-0.708,0.448c-0.217,0.192-0.407,0.421-0.571,0.687
			c-0.164,0.265-0.289,0.557-0.376,0.874v4.598h-0.983v-4.207c0-0.896-0.135-1.547-0.404-1.951
			c-0.271-0.405-0.685-0.607-1.243-0.607c-0.569,0-1.075,0.197-1.519,0.593s-0.761,0.916-0.954,1.562v4.611h-0.982v-7.532h0.896
			v1.706c0.309-0.578,0.714-1.028,1.215-1.352s1.056-0.484,1.662-0.484c0.637,0,1.147,0.179,1.533,0.535
			c0.385,0.356,0.616,0.824,0.693,1.402c0.703-1.292,1.677-1.938,2.921-1.938c0.414,0,0.768,0.077,1.062,0.231
			c0.294,0.154,0.529,0.373,0.708,0.657c0.178,0.285,0.309,0.627,0.391,1.027c0.081,0.399,0.123,0.846,0.123,1.337V484.387z"/>
		<path fill="#E9EEF1" d="M643.322,484.532c-0.549,0-1.053-0.104-1.51-0.311c-0.458-0.207-0.854-0.489-1.186-0.846
			c-0.333-0.356-0.591-0.771-0.773-1.243c-0.184-0.473-0.275-0.969-0.275-1.489c0-0.53,0.095-1.031,0.282-1.504
			c0.188-0.472,0.448-0.887,0.78-1.243c0.333-0.356,0.728-0.641,1.186-0.853s0.957-0.318,1.496-0.318
			c0.54,0,1.039,0.106,1.497,0.318c0.457,0.212,0.853,0.496,1.186,0.853c0.332,0.356,0.593,0.771,0.78,1.243
			c0.188,0.473,0.282,0.974,0.282,1.504c0,0.521-0.095,1.017-0.282,1.489c-0.188,0.472-0.448,0.887-0.78,1.243
			c-0.333,0.356-0.729,0.639-1.186,0.846C644.361,484.428,643.862,484.532,643.322,484.532z M640.591,480.658
			c0,0.424,0.069,0.816,0.209,1.178s0.333,0.68,0.578,0.954c0.246,0.274,0.535,0.489,0.868,0.644
			c0.332,0.154,0.687,0.231,1.062,0.231s0.729-0.08,1.062-0.238c0.332-0.159,0.624-0.376,0.874-0.651
			c0.251-0.274,0.448-0.595,0.593-0.961s0.217-0.762,0.217-1.186c0-0.414-0.072-0.807-0.217-1.178s-0.342-0.694-0.593-0.969
			c-0.25-0.275-0.539-0.492-0.867-0.65c-0.327-0.159-0.68-0.239-1.056-0.239c-0.375,0-0.729,0.08-1.062,0.239
			c-0.332,0.158-0.621,0.378-0.867,0.657c-0.245,0.279-0.44,0.605-0.585,0.976C640.663,479.835,640.591,480.233,640.591,480.658z"/>
		<path fill="#E9EEF1" d="M652.198,484.026c-0.058,0.029-0.143,0.067-0.253,0.115c-0.11,0.049-0.238,0.097-0.383,0.145
			c-0.145,0.049-0.309,0.092-0.491,0.131c-0.184,0.038-0.376,0.058-0.579,0.058c-0.212,0-0.414-0.029-0.606-0.087
			c-0.193-0.058-0.361-0.146-0.507-0.268c-0.145-0.12-0.26-0.272-0.347-0.455c-0.087-0.184-0.13-0.396-0.13-0.637v-5.392h-1.041
			v-0.781h1.041v-2.544h0.983v2.544h1.734v0.781h-1.734v5.117c0.019,0.28,0.115,0.484,0.289,0.614
			c0.173,0.131,0.38,0.195,0.621,0.195c0.279,0,0.525-0.046,0.737-0.137c0.212-0.092,0.348-0.157,0.405-0.195L652.198,484.026z"/>
		<path fill="#E9EEF1" d="M656.651,484.532c-0.55,0-1.056-0.104-1.518-0.311c-0.463-0.207-0.863-0.492-1.2-0.854
			c-0.338-0.361-0.601-0.778-0.788-1.25c-0.188-0.473-0.282-0.979-0.282-1.519c0-0.529,0.095-1.028,0.282-1.496
			c0.188-0.467,0.45-0.877,0.788-1.229c0.337-0.352,0.734-0.631,1.192-0.839c0.458-0.207,0.962-0.311,1.511-0.311
			c0.55,0,1.053,0.104,1.511,0.311c0.458,0.208,0.851,0.489,1.179,0.846c0.327,0.357,0.583,0.767,0.766,1.229
			c0.184,0.462,0.274,0.954,0.274,1.475c0,0.077-0.002,0.154-0.007,0.23c-0.005,0.078-0.012,0.131-0.021,0.159h-6.434
			c0.029,0.405,0.123,0.778,0.282,1.121c0.159,0.342,0.361,0.639,0.607,0.889c0.245,0.251,0.529,0.446,0.853,0.586
			s0.667,0.209,1.034,0.209c0.25,0,0.496-0.033,0.737-0.101c0.24-0.067,0.462-0.159,0.664-0.275
			c0.203-0.115,0.384-0.258,0.543-0.426c0.158-0.169,0.281-0.354,0.368-0.557l0.854,0.231c-0.116,0.279-0.28,0.532-0.492,0.759
			s-0.458,0.424-0.737,0.593c-0.279,0.168-0.588,0.299-0.925,0.39C657.354,484.486,657.008,484.532,656.651,484.532z
			 M659.427,480.224c-0.028-0.405-0.123-0.773-0.281-1.106c-0.159-0.332-0.362-0.619-0.607-0.86c-0.246-0.24-0.533-0.429-0.86-0.563
			c-0.328-0.135-0.675-0.202-1.041-0.202s-0.713,0.067-1.041,0.202c-0.327,0.135-0.614,0.323-0.86,0.563
			c-0.245,0.241-0.443,0.53-0.593,0.867c-0.149,0.338-0.238,0.704-0.267,1.1H659.427z"/>
		<path fill="#E9EEF1" d="M665.05,480.599c0-0.529,0.092-1.03,0.275-1.503c0.183-0.473,0.44-0.884,0.773-1.236
			c0.332-0.352,0.729-0.629,1.192-0.831s0.974-0.304,1.532-0.304c0.713,0,1.335,0.161,1.865,0.484
			c0.529,0.323,0.93,0.759,1.199,1.309l-0.954,0.304c-0.212-0.386-0.506-0.688-0.882-0.904c-0.375-0.217-0.795-0.325-1.258-0.325
			c-0.385,0-0.744,0.077-1.076,0.231c-0.333,0.154-0.622,0.364-0.868,0.629c-0.245,0.266-0.438,0.581-0.578,0.947
			s-0.209,0.766-0.209,1.199c0,0.425,0.072,0.824,0.217,1.2s0.342,0.701,0.593,0.976c0.25,0.275,0.542,0.492,0.874,0.651
			c0.333,0.158,0.687,0.238,1.062,0.238c0.241,0,0.479-0.034,0.716-0.102s0.455-0.161,0.658-0.281
			c0.202-0.121,0.376-0.258,0.521-0.412s0.245-0.318,0.303-0.492l0.955,0.289c-0.106,0.271-0.261,0.519-0.463,0.745
			s-0.441,0.424-0.716,0.593c-0.274,0.168-0.578,0.299-0.911,0.39c-0.332,0.092-0.677,0.138-1.033,0.138
			c-0.55,0-1.056-0.104-1.518-0.311c-0.463-0.207-0.863-0.492-1.2-0.854c-0.338-0.361-0.601-0.778-0.788-1.25
			C665.145,481.645,665.05,481.139,665.05,480.599z"/>
		<path fill="#E9EEF1" d="M676.658,484.532c-0.549,0-1.053-0.104-1.51-0.311c-0.458-0.207-0.854-0.489-1.186-0.846
			c-0.333-0.356-0.591-0.771-0.773-1.243c-0.184-0.473-0.275-0.969-0.275-1.489c0-0.53,0.095-1.031,0.282-1.504
			c0.188-0.472,0.448-0.887,0.78-1.243c0.333-0.356,0.728-0.641,1.186-0.853s0.957-0.318,1.496-0.318
			c0.54,0,1.039,0.106,1.497,0.318c0.457,0.212,0.853,0.496,1.186,0.853c0.332,0.356,0.593,0.771,0.78,1.243
			c0.188,0.473,0.282,0.974,0.282,1.504c0,0.521-0.095,1.017-0.282,1.489c-0.188,0.472-0.448,0.887-0.78,1.243
			c-0.333,0.356-0.729,0.639-1.186,0.846C677.697,484.428,677.198,484.532,676.658,484.532z M673.927,480.658
			c0,0.424,0.069,0.816,0.209,1.178s0.333,0.68,0.578,0.954c0.246,0.274,0.535,0.489,0.868,0.644
			c0.332,0.154,0.687,0.231,1.062,0.231s0.729-0.08,1.062-0.238c0.332-0.159,0.624-0.376,0.874-0.651
			c0.251-0.274,0.448-0.595,0.593-0.961s0.217-0.762,0.217-1.186c0-0.414-0.072-0.807-0.217-1.178s-0.342-0.694-0.593-0.969
			c-0.25-0.275-0.539-0.492-0.867-0.65c-0.327-0.159-0.68-0.239-1.056-0.239c-0.375,0-0.729,0.08-1.062,0.239
			c-0.332,0.158-0.621,0.378-0.867,0.657c-0.245,0.279-0.44,0.605-0.585,0.976C673.999,479.835,673.927,480.233,673.927,480.658z"/>
		<path fill="#E9EEF1" d="M688.34,484.387h-0.983v-4.207c0-0.896-0.13-1.547-0.391-1.951c-0.26-0.405-0.665-0.607-1.214-0.607
			c-0.289,0-0.578,0.053-0.867,0.159c-0.289,0.105-0.56,0.255-0.81,0.448c-0.251,0.192-0.471,0.421-0.658,0.687
			c-0.188,0.265-0.33,0.552-0.427,0.86v4.611h-0.982v-7.532h0.896v1.706c0.154-0.27,0.345-0.518,0.571-0.744
			s0.479-0.422,0.759-0.586c0.28-0.164,0.576-0.289,0.89-0.376c0.312-0.087,0.639-0.13,0.976-0.13c0.424,0,0.778,0.077,1.062,0.231
			s0.514,0.371,0.687,0.65c0.174,0.279,0.299,0.622,0.376,1.026c0.077,0.405,0.116,0.854,0.116,1.345V484.387z"/>
		<path fill="#E9EEF1" d="M693.963,484.026c-0.058,0.029-0.143,0.067-0.253,0.115c-0.11,0.049-0.238,0.097-0.383,0.145
			c-0.145,0.049-0.309,0.092-0.491,0.131c-0.184,0.038-0.376,0.058-0.579,0.058c-0.212,0-0.414-0.029-0.606-0.087
			c-0.193-0.058-0.361-0.146-0.507-0.268c-0.145-0.12-0.26-0.272-0.347-0.455c-0.087-0.184-0.13-0.396-0.13-0.637v-5.392h-1.041
			v-0.781h1.041v-2.544h0.983v2.544h1.734v0.781h-1.734v5.117c0.019,0.28,0.115,0.484,0.289,0.614
			c0.173,0.131,0.38,0.195,0.621,0.195c0.279,0,0.525-0.046,0.737-0.137c0.212-0.092,0.348-0.157,0.405-0.195L693.963,484.026z"/>
		<path fill="#E9EEF1" d="M698.879,477.723c-0.665,0.019-1.243,0.202-1.735,0.549c-0.491,0.347-0.838,0.824-1.041,1.432v4.684
			h-0.982v-7.532h0.925v1.808c0.261-0.53,0.603-0.971,1.026-1.323c0.424-0.352,0.882-0.527,1.374-0.527c0.086,0,0.168,0,0.245,0
			s0.14,0.005,0.188,0.015V477.723z"/>
		<path fill="#E9EEF1" d="M703.1,484.532c-0.549,0-1.053-0.104-1.51-0.311c-0.458-0.207-0.854-0.489-1.186-0.846
			c-0.333-0.356-0.591-0.771-0.773-1.243c-0.184-0.473-0.275-0.969-0.275-1.489c0-0.53,0.095-1.031,0.282-1.504
			c0.188-0.472,0.448-0.887,0.78-1.243c0.333-0.356,0.728-0.641,1.186-0.853s0.957-0.318,1.496-0.318
			c0.54,0,1.039,0.106,1.497,0.318c0.457,0.212,0.853,0.496,1.186,0.853c0.332,0.356,0.593,0.771,0.78,1.243
			c0.188,0.473,0.282,0.974,0.282,1.504c0,0.521-0.095,1.017-0.282,1.489c-0.188,0.472-0.448,0.887-0.78,1.243
			c-0.333,0.356-0.729,0.639-1.186,0.846C704.139,484.428,703.64,484.532,703.1,484.532z M700.368,480.658
			c0,0.424,0.069,0.816,0.209,1.178s0.333,0.68,0.578,0.954c0.246,0.274,0.535,0.489,0.868,0.644
			c0.332,0.154,0.687,0.231,1.062,0.231s0.729-0.08,1.062-0.238c0.332-0.159,0.624-0.376,0.874-0.651
			c0.251-0.274,0.448-0.595,0.593-0.961s0.217-0.762,0.217-1.186c0-0.414-0.072-0.807-0.217-1.178s-0.342-0.694-0.593-0.969
			c-0.25-0.275-0.539-0.492-0.867-0.65c-0.327-0.159-0.68-0.239-1.056-0.239c-0.375,0-0.729,0.08-1.062,0.239
			c-0.332,0.158-0.621,0.378-0.867,0.657c-0.245,0.279-0.44,0.605-0.585,0.976C700.44,479.835,700.368,480.233,700.368,480.658z"/>
		<path fill="#E9EEF1" d="M708.492,473.833h0.983v8.848c0,0.28,0.077,0.499,0.231,0.658c0.153,0.159,0.37,0.238,0.65,0.238
			c0.105,0,0.231-0.015,0.376-0.043c0.145-0.029,0.279-0.067,0.404-0.116l0.174,0.795c-0.184,0.077-0.407,0.141-0.673,0.188
			c-0.265,0.048-0.493,0.072-0.687,0.072c-0.453,0-0.81-0.128-1.069-0.383c-0.261-0.256-0.391-0.615-0.391-1.077V473.833z"/>
		<path fill="#E9EEF1" d="M712.309,473.833h0.983v8.848c0,0.28,0.077,0.499,0.231,0.658c0.153,0.159,0.37,0.238,0.65,0.238
			c0.105,0,0.231-0.015,0.376-0.043c0.145-0.029,0.279-0.067,0.404-0.116l0.174,0.795c-0.184,0.077-0.407,0.141-0.673,0.188
			c-0.265,0.048-0.493,0.072-0.687,0.072c-0.453,0-0.81-0.128-1.069-0.383c-0.261-0.256-0.391-0.615-0.391-1.077V473.833z"/>
		<path fill="#E9EEF1" d="M719.378,484.532c-0.55,0-1.056-0.104-1.518-0.311c-0.463-0.207-0.863-0.492-1.2-0.854
			c-0.338-0.361-0.601-0.778-0.788-1.25c-0.188-0.473-0.282-0.979-0.282-1.519c0-0.529,0.095-1.028,0.282-1.496
			c0.188-0.467,0.45-0.877,0.788-1.229c0.337-0.352,0.734-0.631,1.192-0.839c0.458-0.207,0.962-0.311,1.511-0.311
			c0.55,0,1.053,0.104,1.511,0.311c0.458,0.208,0.851,0.489,1.179,0.846c0.327,0.357,0.583,0.767,0.766,1.229
			c0.184,0.462,0.274,0.954,0.274,1.475c0,0.077-0.002,0.154-0.007,0.23c-0.005,0.078-0.012,0.131-0.021,0.159h-6.434
			c0.029,0.405,0.123,0.778,0.282,1.121c0.159,0.342,0.361,0.639,0.607,0.889c0.245,0.251,0.529,0.446,0.853,0.586
			s0.667,0.209,1.034,0.209c0.25,0,0.496-0.033,0.737-0.101c0.24-0.067,0.462-0.159,0.664-0.275
			c0.203-0.115,0.384-0.258,0.543-0.426c0.158-0.169,0.281-0.354,0.368-0.557l0.854,0.231c-0.116,0.279-0.28,0.532-0.492,0.759
			s-0.458,0.424-0.737,0.593c-0.279,0.168-0.588,0.299-0.925,0.39C720.081,484.486,719.734,484.532,719.378,484.532z
			 M722.153,480.224c-0.028-0.405-0.123-0.773-0.281-1.106c-0.159-0.332-0.362-0.619-0.607-0.86c-0.246-0.24-0.533-0.429-0.86-0.563
			c-0.328-0.135-0.675-0.202-1.041-0.202s-0.713,0.067-1.041,0.202c-0.327,0.135-0.614,0.323-0.86,0.563
			c-0.245,0.241-0.443,0.53-0.593,0.867c-0.149,0.338-0.238,0.704-0.267,1.1H722.153z"/>
		<path fill="#E9EEF1" d="M727.69,484.532c-0.521,0-1.002-0.108-1.445-0.325s-0.826-0.504-1.149-0.86s-0.573-0.769-0.752-1.236
			c-0.179-0.467-0.268-0.956-0.268-1.467c0-0.53,0.087-1.034,0.261-1.511c0.173-0.478,0.412-0.894,0.716-1.251
			c0.303-0.356,0.665-0.638,1.084-0.846c0.419-0.207,0.879-0.311,1.381-0.311c0.636,0,1.199,0.166,1.691,0.499
			c0.491,0.332,0.882,0.734,1.171,1.207v-4.598h0.982v9.281c0,0.271,0.116,0.405,0.348,0.405v0.867
			c-0.164,0.029-0.294,0.043-0.391,0.043c-0.241,0-0.438-0.069-0.593-0.209s-0.231-0.306-0.231-0.499v-0.795
			c-0.309,0.491-0.716,0.882-1.222,1.171S728.24,484.532,727.69,484.532z M727.894,483.665c0.25,0,0.513-0.048,0.787-0.145
			c0.275-0.097,0.53-0.229,0.767-0.397c0.236-0.169,0.44-0.366,0.614-0.593s0.279-0.47,0.318-0.73v-2.327
			c-0.097-0.261-0.239-0.504-0.427-0.73s-0.4-0.427-0.636-0.6c-0.236-0.174-0.487-0.309-0.752-0.405
			c-0.266-0.096-0.527-0.145-0.788-0.145c-0.404,0-0.773,0.087-1.105,0.261c-0.333,0.173-0.615,0.402-0.846,0.687
			c-0.231,0.284-0.412,0.609-0.543,0.976c-0.13,0.366-0.194,0.742-0.194,1.128c0,0.404,0.072,0.79,0.217,1.156
			s0.342,0.687,0.593,0.962c0.25,0.274,0.547,0.493,0.889,0.657S727.498,483.665,727.894,483.665z"/>
		<path fill="#E9EEF1" d="M612.097,501.879c-0.55,0-1.056-0.104-1.518-0.311c-0.463-0.207-0.863-0.492-1.2-0.854
			c-0.338-0.361-0.601-0.778-0.788-1.25c-0.188-0.473-0.282-0.979-0.282-1.519c0-0.529,0.095-1.028,0.282-1.496
			c0.188-0.467,0.45-0.877,0.788-1.229c0.337-0.352,0.734-0.631,1.192-0.839c0.458-0.207,0.962-0.311,1.511-0.311
			c0.55,0,1.053,0.104,1.511,0.311c0.458,0.208,0.851,0.489,1.179,0.846c0.327,0.357,0.583,0.767,0.766,1.229
			c0.184,0.462,0.274,0.954,0.274,1.475c0,0.077-0.002,0.154-0.007,0.23c-0.005,0.078-0.012,0.131-0.021,0.159h-6.434
			c0.029,0.405,0.123,0.778,0.282,1.121c0.159,0.342,0.361,0.639,0.607,0.889c0.245,0.251,0.529,0.446,0.853,0.586
			s0.667,0.209,1.034,0.209c0.25,0,0.496-0.033,0.737-0.101c0.24-0.067,0.462-0.159,0.664-0.275
			c0.203-0.115,0.384-0.258,0.543-0.426c0.158-0.169,0.281-0.354,0.368-0.557l0.854,0.231c-0.116,0.279-0.28,0.532-0.492,0.759
			s-0.458,0.424-0.737,0.593c-0.279,0.168-0.588,0.299-0.925,0.39C612.8,501.833,612.453,501.879,612.097,501.879z M614.872,497.572
			c-0.028-0.405-0.123-0.773-0.281-1.106c-0.159-0.332-0.362-0.619-0.607-0.86c-0.246-0.24-0.533-0.429-0.86-0.563
			c-0.328-0.135-0.675-0.202-1.041-0.202s-0.713,0.067-1.041,0.202c-0.327,0.135-0.614,0.323-0.86,0.563
			c-0.245,0.241-0.443,0.53-0.593,0.867c-0.149,0.338-0.238,0.704-0.267,1.1H614.872z"/>
		<path fill="#E9EEF1" d="M617.33,491.181h0.983v8.848c0,0.28,0.077,0.499,0.231,0.658c0.153,0.159,0.37,0.238,0.65,0.238
			c0.105,0,0.231-0.015,0.376-0.043c0.145-0.029,0.279-0.067,0.404-0.116l0.174,0.795c-0.184,0.077-0.407,0.141-0.673,0.188
			c-0.265,0.048-0.493,0.072-0.687,0.072c-0.453,0-0.81-0.128-1.069-0.383c-0.261-0.256-0.391-0.615-0.391-1.077V491.181z"/>
		<path fill="#E9EEF1" d="M624.399,501.879c-0.55,0-1.056-0.104-1.518-0.311c-0.463-0.207-0.863-0.492-1.2-0.854
			c-0.338-0.361-0.601-0.778-0.788-1.25c-0.188-0.473-0.282-0.979-0.282-1.519c0-0.529,0.095-1.028,0.282-1.496
			c0.188-0.467,0.45-0.877,0.788-1.229c0.337-0.352,0.734-0.631,1.192-0.839c0.458-0.207,0.962-0.311,1.511-0.311
			c0.55,0,1.053,0.104,1.511,0.311c0.458,0.208,0.851,0.489,1.179,0.846c0.327,0.357,0.583,0.767,0.766,1.229
			c0.184,0.462,0.274,0.954,0.274,1.475c0,0.077-0.002,0.154-0.007,0.23c-0.005,0.078-0.012,0.131-0.021,0.159h-6.434
			c0.029,0.405,0.123,0.778,0.282,1.121c0.159,0.342,0.361,0.639,0.607,0.889c0.245,0.251,0.529,0.446,0.853,0.586
			s0.667,0.209,1.034,0.209c0.25,0,0.496-0.033,0.737-0.101c0.24-0.067,0.462-0.159,0.664-0.275
			c0.203-0.115,0.384-0.258,0.543-0.426c0.158-0.169,0.281-0.354,0.368-0.557l0.854,0.231c-0.116,0.279-0.28,0.532-0.492,0.759
			s-0.458,0.424-0.737,0.593c-0.279,0.168-0.588,0.299-0.925,0.39C625.103,501.833,624.756,501.879,624.399,501.879z
			 M627.175,497.572c-0.028-0.405-0.123-0.773-0.281-1.106c-0.159-0.332-0.362-0.619-0.607-0.86c-0.246-0.24-0.533-0.429-0.86-0.563
			c-0.328-0.135-0.675-0.202-1.041-0.202s-0.713,0.067-1.041,0.202c-0.327,0.135-0.614,0.323-0.86,0.563
			c-0.245,0.241-0.443,0.53-0.593,0.867c-0.149,0.338-0.238,0.704-0.267,1.1H627.175z"/>
		<path fill="#E9EEF1" d="M629.097,497.947c0-0.529,0.092-1.03,0.275-1.503c0.183-0.473,0.44-0.884,0.773-1.236
			c0.332-0.352,0.729-0.629,1.192-0.831s0.974-0.304,1.532-0.304c0.713,0,1.335,0.161,1.865,0.484
			c0.529,0.323,0.93,0.759,1.199,1.309l-0.954,0.304c-0.212-0.386-0.506-0.688-0.882-0.904c-0.375-0.217-0.795-0.325-1.258-0.325
			c-0.385,0-0.744,0.077-1.076,0.231c-0.333,0.154-0.622,0.364-0.868,0.629c-0.245,0.266-0.438,0.581-0.578,0.947
			s-0.209,0.766-0.209,1.199c0,0.425,0.072,0.824,0.217,1.2s0.342,0.701,0.593,0.976c0.25,0.275,0.542,0.492,0.874,0.651
			c0.333,0.158,0.687,0.238,1.062,0.238c0.241,0,0.479-0.034,0.716-0.102s0.455-0.161,0.658-0.281
			c0.202-0.121,0.376-0.258,0.521-0.412s0.245-0.318,0.303-0.492l0.955,0.289c-0.106,0.271-0.261,0.519-0.463,0.745
			s-0.441,0.424-0.716,0.593c-0.274,0.168-0.578,0.299-0.911,0.39c-0.332,0.092-0.677,0.138-1.033,0.138
			c-0.55,0-1.056-0.104-1.518-0.311c-0.463-0.207-0.863-0.492-1.2-0.854c-0.338-0.361-0.601-0.778-0.788-1.25
			C629.191,498.993,629.097,498.487,629.097,497.947z"/>
		<path fill="#E9EEF1" d="M641.183,501.374c-0.058,0.029-0.143,0.067-0.253,0.115c-0.11,0.049-0.238,0.097-0.383,0.145
			c-0.145,0.049-0.309,0.092-0.491,0.131c-0.184,0.038-0.376,0.058-0.579,0.058c-0.212,0-0.414-0.029-0.606-0.087
			c-0.193-0.058-0.361-0.146-0.507-0.268c-0.145-0.12-0.26-0.272-0.347-0.455c-0.087-0.184-0.13-0.396-0.13-0.637v-5.392h-1.041
			v-0.781h1.041v-2.544h0.983v2.544h1.734v0.781h-1.734v5.117c0.019,0.28,0.115,0.484,0.289,0.614
			c0.173,0.131,0.38,0.195,0.621,0.195c0.279,0,0.525-0.046,0.737-0.137c0.212-0.092,0.348-0.157,0.405-0.195L641.183,501.374z"/>
		<path fill="#E9EEF1" d="M646.099,495.071c-0.665,0.019-1.243,0.202-1.735,0.549c-0.491,0.347-0.838,0.824-1.041,1.432v4.684
			h-0.982v-7.532h0.925v1.808c0.261-0.53,0.603-0.971,1.026-1.323c0.424-0.352,0.882-0.527,1.374-0.527c0.086,0,0.168,0,0.245,0
			s0.14,0.005,0.188,0.015V495.071z"/>
		<path fill="#E9EEF1" d="M647.414,492.627v-1.446h0.982v1.446H647.414z M647.414,501.735v-7.532h0.982v7.532H647.414z"/>
		<path fill="#E9EEF1" d="M650.016,497.947c0-0.529,0.092-1.03,0.275-1.503c0.183-0.473,0.44-0.884,0.773-1.236
			c0.332-0.352,0.729-0.629,1.192-0.831s0.974-0.304,1.532-0.304c0.713,0,1.335,0.161,1.865,0.484
			c0.529,0.323,0.93,0.759,1.199,1.309l-0.954,0.304c-0.212-0.386-0.506-0.688-0.882-0.904c-0.375-0.217-0.795-0.325-1.258-0.325
			c-0.385,0-0.744,0.077-1.076,0.231c-0.333,0.154-0.622,0.364-0.868,0.629c-0.245,0.266-0.438,0.581-0.578,0.947
			s-0.209,0.766-0.209,1.199c0,0.425,0.072,0.824,0.217,1.2s0.342,0.701,0.593,0.976c0.25,0.275,0.542,0.492,0.874,0.651
			c0.333,0.158,0.687,0.238,1.062,0.238c0.241,0,0.479-0.034,0.716-0.102s0.455-0.161,0.658-0.281
			c0.202-0.121,0.376-0.258,0.521-0.412s0.245-0.318,0.303-0.492l0.955,0.289c-0.106,0.271-0.261,0.519-0.463,0.745
			s-0.441,0.424-0.716,0.593c-0.274,0.168-0.578,0.299-0.911,0.39c-0.332,0.092-0.677,0.138-1.033,0.138
			c-0.55,0-1.056-0.104-1.518-0.311c-0.463-0.207-0.863-0.492-1.2-0.854c-0.338-0.361-0.601-0.778-0.788-1.25
			C650.11,498.993,650.016,498.487,650.016,497.947z"/>
		<path fill="#E9EEF1" d="M660.453,501.879c-0.386,0-0.737-0.061-1.056-0.181s-0.591-0.287-0.816-0.499
			c-0.228-0.212-0.403-0.457-0.528-0.737c-0.125-0.279-0.188-0.573-0.188-0.882c0-0.347,0.077-0.662,0.231-0.946
			c0.153-0.284,0.37-0.528,0.65-0.73c0.279-0.202,0.614-0.359,1.005-0.47c0.39-0.11,0.821-0.166,1.294-0.166
			c0.375,0,0.761,0.033,1.156,0.101c0.395,0.067,0.747,0.164,1.055,0.289v-0.679c0-0.665-0.19-1.193-0.57-1.583
			c-0.381-0.391-0.895-0.586-1.54-0.586c-0.404,0-0.808,0.077-1.207,0.231c-0.4,0.154-0.808,0.376-1.222,0.665l-0.347-0.65
			c0.491-0.328,0.969-0.573,1.431-0.737c0.463-0.164,0.945-0.246,1.446-0.246c0.915,0,1.643,0.266,2.183,0.795
			c0.54,0.53,0.81,1.263,0.81,2.197v3.397c0,0.271,0.116,0.405,0.347,0.405v0.867c-0.077,0.01-0.149,0.017-0.217,0.021
			s-0.125,0.008-0.173,0.008c-0.193,0-0.369-0.059-0.528-0.174c-0.158-0.115-0.248-0.289-0.267-0.521l-0.029-0.593
			c-0.328,0.443-0.759,0.788-1.294,1.034C661.544,501.756,661.002,501.879,660.453,501.879z M660.698,501.127
			c0.434,0,0.865-0.094,1.294-0.281c0.429-0.188,0.769-0.446,1.02-0.773c0.067-0.087,0.125-0.181,0.173-0.282
			c0.049-0.102,0.072-0.195,0.072-0.282v-1.229c-0.327-0.125-0.67-0.222-1.026-0.289s-0.703-0.102-1.04-0.102
			c-0.704,0-1.275,0.143-1.714,0.427s-0.657,0.677-0.657,1.178c0,0.203,0.038,0.4,0.115,0.593c0.077,0.193,0.195,0.367,0.354,0.521
			c0.159,0.154,0.354,0.28,0.585,0.376C660.105,501.08,660.381,501.127,660.698,501.127z"/>
		<path fill="#E9EEF1" d="M666.424,491.181h0.983v8.848c0,0.28,0.077,0.499,0.231,0.658c0.153,0.159,0.37,0.238,0.65,0.238
			c0.105,0,0.231-0.015,0.376-0.043c0.145-0.029,0.279-0.067,0.404-0.116l0.174,0.795c-0.184,0.077-0.407,0.141-0.673,0.188
			c-0.265,0.048-0.493,0.072-0.687,0.072c-0.453,0-0.81-0.128-1.069-0.383c-0.261-0.256-0.391-0.615-0.391-1.077V491.181z"/>
		<path fill="#E9EEF1" d="M675.357,501.735l-3.064-7.532h1.026l2.588,6.621l2.602-6.621h0.954l-3.064,7.532H675.357z"/>
		<path fill="#E9EEF1" d="M680.765,492.627v-1.446h0.982v1.446H680.765z M680.765,501.735v-7.532h0.982v7.532H680.765z"/>
		<path fill="#E9EEF1" d="M685.854,501.879c-0.386,0-0.737-0.061-1.056-0.181s-0.591-0.287-0.816-0.499
			c-0.228-0.212-0.403-0.457-0.528-0.737c-0.125-0.279-0.188-0.573-0.188-0.882c0-0.347,0.077-0.662,0.231-0.946
			c0.153-0.284,0.37-0.528,0.65-0.73c0.279-0.202,0.614-0.359,1.005-0.47c0.39-0.11,0.821-0.166,1.294-0.166
			c0.375,0,0.761,0.033,1.156,0.101c0.395,0.067,0.747,0.164,1.055,0.289v-0.679c0-0.665-0.19-1.193-0.57-1.583
			c-0.381-0.391-0.895-0.586-1.54-0.586c-0.404,0-0.808,0.077-1.207,0.231c-0.4,0.154-0.808,0.376-1.222,0.665l-0.347-0.65
			c0.491-0.328,0.969-0.573,1.431-0.737c0.463-0.164,0.945-0.246,1.446-0.246c0.915,0,1.643,0.266,2.183,0.795
			c0.54,0.53,0.81,1.263,0.81,2.197v3.397c0,0.271,0.116,0.405,0.347,0.405v0.867c-0.077,0.01-0.149,0.017-0.217,0.021
			s-0.125,0.008-0.173,0.008c-0.193,0-0.369-0.059-0.528-0.174c-0.158-0.115-0.248-0.289-0.267-0.521l-0.029-0.593
			c-0.328,0.443-0.759,0.788-1.294,1.034C686.944,501.756,686.402,501.879,685.854,501.879z M686.099,501.127
			c0.434,0,0.865-0.094,1.294-0.281c0.429-0.188,0.769-0.446,1.02-0.773c0.067-0.087,0.125-0.181,0.173-0.282
			c0.049-0.102,0.072-0.195,0.072-0.282v-1.229c-0.327-0.125-0.67-0.222-1.026-0.289s-0.703-0.102-1.04-0.102
			c-0.704,0-1.275,0.143-1.714,0.427s-0.657,0.677-0.657,1.178c0,0.203,0.038,0.4,0.115,0.593c0.077,0.193,0.195,0.367,0.354,0.521
			c0.159,0.154,0.354,0.28,0.585,0.376C685.506,501.08,685.781,501.127,686.099,501.127z"/>
		<path fill="#E9EEF1" d="M699.24,495.071c-0.665,0.019-1.243,0.202-1.735,0.549c-0.491,0.347-0.838,0.824-1.041,1.432v4.684h-0.982
			v-7.532h0.925v1.808c0.261-0.53,0.603-0.971,1.026-1.323c0.424-0.352,0.882-0.527,1.374-0.527c0.086,0,0.168,0,0.245,0
			s0.14,0.005,0.188,0.015V495.071z"/>
		<path fill="#E9EEF1" d="M702.406,501.879c-0.386,0-0.737-0.061-1.056-0.181s-0.591-0.287-0.816-0.499
			c-0.228-0.212-0.403-0.457-0.528-0.737c-0.125-0.279-0.188-0.573-0.188-0.882c0-0.347,0.077-0.662,0.231-0.946
			c0.153-0.284,0.37-0.528,0.65-0.73c0.279-0.202,0.614-0.359,1.005-0.47c0.39-0.11,0.821-0.166,1.294-0.166
			c0.375,0,0.761,0.033,1.156,0.101c0.395,0.067,0.747,0.164,1.055,0.289v-0.679c0-0.665-0.19-1.193-0.57-1.583
			c-0.381-0.391-0.895-0.586-1.54-0.586c-0.404,0-0.808,0.077-1.207,0.231c-0.4,0.154-0.808,0.376-1.222,0.665l-0.347-0.65
			c0.491-0.328,0.969-0.573,1.431-0.737c0.463-0.164,0.945-0.246,1.446-0.246c0.915,0,1.643,0.266,2.183,0.795
			c0.54,0.53,0.81,1.263,0.81,2.197v3.397c0,0.271,0.116,0.405,0.347,0.405v0.867c-0.077,0.01-0.149,0.017-0.217,0.021
			s-0.125,0.008-0.173,0.008c-0.193,0-0.369-0.059-0.528-0.174c-0.158-0.115-0.248-0.289-0.267-0.521l-0.029-0.593
			c-0.328,0.443-0.759,0.788-1.294,1.034C703.497,501.756,702.955,501.879,702.406,501.879z M702.651,501.127
			c0.434,0,0.865-0.094,1.294-0.281c0.429-0.188,0.769-0.446,1.02-0.773c0.067-0.087,0.125-0.181,0.173-0.282
			c0.049-0.102,0.072-0.195,0.072-0.282v-1.229c-0.327-0.125-0.67-0.222-1.026-0.289s-0.703-0.102-1.04-0.102
			c-0.704,0-1.275,0.143-1.714,0.427s-0.657,0.677-0.657,1.178c0,0.203,0.038,0.4,0.115,0.593c0.077,0.193,0.195,0.367,0.354,0.521
			c0.159,0.154,0.354,0.28,0.585,0.376C702.059,501.08,702.334,501.127,702.651,501.127z"/>
		<path fill="#E9EEF1" d="M711.455,501.879c-0.521,0-1.002-0.108-1.445-0.325s-0.826-0.504-1.149-0.86s-0.573-0.769-0.752-1.236
			c-0.179-0.467-0.268-0.956-0.268-1.467c0-0.53,0.087-1.034,0.261-1.511c0.173-0.478,0.412-0.894,0.716-1.251
			c0.303-0.356,0.665-0.638,1.084-0.846c0.419-0.207,0.879-0.311,1.381-0.311c0.636,0,1.199,0.166,1.691,0.499
			c0.491,0.332,0.882,0.734,1.171,1.207v-4.598h0.982v9.281c0,0.271,0.116,0.405,0.348,0.405v0.867
			c-0.164,0.029-0.294,0.043-0.391,0.043c-0.241,0-0.438-0.069-0.593-0.209s-0.231-0.306-0.231-0.499v-0.795
			c-0.309,0.491-0.716,0.882-1.222,1.171S712.005,501.879,711.455,501.879z M711.658,501.012c0.25,0,0.513-0.048,0.787-0.145
			c0.275-0.097,0.53-0.229,0.767-0.397c0.236-0.169,0.44-0.366,0.614-0.593s0.279-0.47,0.318-0.73v-2.327
			c-0.097-0.261-0.239-0.504-0.427-0.73s-0.4-0.427-0.636-0.6c-0.236-0.174-0.487-0.309-0.752-0.405
			c-0.266-0.096-0.527-0.145-0.788-0.145c-0.404,0-0.773,0.087-1.105,0.261c-0.333,0.173-0.615,0.402-0.846,0.687
			c-0.231,0.284-0.412,0.609-0.543,0.976c-0.13,0.366-0.194,0.742-0.194,1.128c0,0.404,0.072,0.79,0.217,1.156
			s0.342,0.687,0.593,0.962c0.25,0.274,0.547,0.493,0.889,0.657S711.263,501.012,711.658,501.012z"/>
		<path fill="#E9EEF1" d="M717.34,492.627v-1.446h0.982v1.446H717.34z M717.34,501.735v-7.532h0.982v7.532H717.34z"/>
		<path fill="#E9EEF1" d="M723.686,501.879c-0.549,0-1.053-0.104-1.51-0.311c-0.458-0.207-0.854-0.489-1.186-0.846
			c-0.333-0.356-0.591-0.771-0.773-1.243c-0.184-0.473-0.275-0.969-0.275-1.489c0-0.53,0.095-1.031,0.282-1.504
			c0.188-0.472,0.448-0.887,0.78-1.243c0.333-0.356,0.728-0.641,1.186-0.853s0.957-0.318,1.496-0.318
			c0.54,0,1.039,0.106,1.497,0.318c0.457,0.212,0.853,0.496,1.186,0.853c0.332,0.356,0.593,0.771,0.78,1.243
			c0.188,0.473,0.282,0.974,0.282,1.504c0,0.521-0.095,1.017-0.282,1.489c-0.188,0.472-0.448,0.887-0.78,1.243
			c-0.333,0.356-0.729,0.639-1.186,0.846C724.725,501.776,724.226,501.879,723.686,501.879z M720.954,498.005
			c0,0.424,0.069,0.816,0.209,1.178s0.333,0.68,0.578,0.954c0.246,0.274,0.535,0.489,0.868,0.644
			c0.332,0.154,0.687,0.231,1.062,0.231s0.729-0.08,1.062-0.238c0.332-0.159,0.624-0.376,0.874-0.651
			c0.251-0.274,0.448-0.595,0.593-0.961s0.217-0.762,0.217-1.186c0-0.414-0.072-0.807-0.217-1.178s-0.342-0.694-0.593-0.969
			c-0.25-0.275-0.539-0.492-0.867-0.65c-0.327-0.159-0.68-0.239-1.056-0.239c-0.375,0-0.729,0.08-1.062,0.239
			c-0.332,0.158-0.621,0.378-0.867,0.657c-0.245,0.279-0.44,0.605-0.585,0.976C721.026,497.183,720.954,497.581,720.954,498.005z"/>
	</g>
</g>
<circle fill="none" stroke="#E9EEF1" stroke-width="2" stroke-miterlimit="10" cx="688.402" cy="595.968" r="12.18"/>
<path fill="none" stroke="#E9EEF1" stroke-width="2" stroke-miterlimit="10" d="M696.546,595.968c0,4.496-3.646,8.141-8.146,8.141
	c-4.499,0-8.141-3.645-8.141-8.141c0-4.5,3.642-8.146,8.141-8.146C692.9,587.822,696.546,591.468,696.546,595.968z"/>
<path fill="none" stroke="#E9EEF1" stroke-width="2" stroke-miterlimit="10" d="M691.683,595.968c0,1.811-1.47,3.28-3.282,3.28
	c-1.811,0-3.275-1.47-3.275-3.28c0-1.814,1.465-3.283,3.275-3.283C690.213,592.685,691.683,594.154,691.683,595.968z"/>
<circle fill="none" stroke="#E9EEF1" stroke-width="2" stroke-miterlimit="10" cx="737.31" cy="575.081" r="9.902"/>
<circle fill="none" stroke="#E9EEF1" stroke-width="2" stroke-miterlimit="10" cx="639.479" cy="575.081" r="9.897"/>
<ellipse fill="none" stroke="#E9EEF1" stroke-width="2" stroke-miterlimit="10" cx="639.479" cy="575.081" rx="13.906" ry="13.913"/>
<circle fill="none" stroke="#E9EEF1" stroke-width="2" stroke-miterlimit="10" cx="737.309" cy="575.081" r="13.912"/>
<circle fill="none" stroke="#E9EEF1" stroke-width="2" stroke-miterlimit="10" cx="663.914" cy="550.09" r="4.375"/>
<circle fill="none" stroke="#E9EEF1" stroke-width="2" stroke-miterlimit="10" cx="635.108" cy="604.109" r="4.373"/>
<circle fill="none" stroke="#E9EEF1" stroke-width="2" stroke-miterlimit="10" cx="747.211" cy="604.109" r="4.374"/>
<path fill="none" stroke="#E9EEF1" stroke-width="2" stroke-miterlimit="10" d="M718.009,550.09c0,2.416-1.955,4.374-4.369,4.374
	c-2.42,0-4.375-1.958-4.375-4.374c0-2.414,1.955-4.373,4.375-4.373C716.054,545.717,718.009,547.676,718.009,550.09z"/>
<circle fill="none" stroke="#E9EEF1" stroke-width="2" stroke-miterlimit="10" cx="688.403" cy="550.09" r="4.375"/>
<path fill="none" stroke="#E9EEF1" stroke-width="2" stroke-miterlimit="10" d="M717.451,616.852
	c12.676,1.188,42.828,8.108,46.291-21.231c3.464-29.346,8.567-51.58-23.146-58.87s-72.678-7.29-104.381,0
	c-31.712,7.29-26.608,29.524-23.146,58.87c3.465,29.34,33.609,22.419,46.286,21.231
	C673.814,615.495,702.987,615.495,717.451,616.852z"/>
<path fill="none" stroke="#E9EEF1" stroke-width="2" stroke-miterlimit="10" d="M688.4,592.998"/>
<path fill="none" stroke="#E9EEF1" stroke-width="2" stroke-miterlimit="10" d="M660.582,616.743l8.73-35.454
	c0,0,1.11-3.661,5.988-3.661c4.879,0,21.319,0,26.201,0c4.881,0,5.989,3.661,5.989,3.661l8.727,35.454"/>
<g>
	
		<image overflow="visible" opacity="0.2" width="690" height="158" xlink:href="C67B77C1A5C70B5F.png"  transform="matrix(1 0 0 1 303 284.9995)">
	</image>
	<g>
		<g>
			<rect x="345.822" y="315.707" fill="#E9EEF1" width="597.527" height="5.723"/>
			<polygon fill="#E9EEF1" points="708.382,324.509 707.851,324.509 345.822,324.509 345.822,340.987 725.543,340.987 
				725.543,324.509 			"/>
			<path fill="#E9EEF1" d="M929.357,294.976l-253.081-0.381l-107.924,12.328H345.825v5.722h597.47v-3.66
				c0-7.7-6.238-13.939-13.938-13.939V294.976z"/>
			<path fill="#E9EEF1" d="M748.109,401.953c0,7.495,6.074,13.569,13.573,13.569c7.496,0,13.57-6.074,13.57-13.569H748.109z"/>
			<path fill="#E9EEF1" d="M897.312,401.953c0,7.495,6.074,13.569,13.572,13.569c7.497,0,13.571-6.074,13.571-13.569H897.312z"/>
			<polygon fill="#E9EEF1" points="946.413,315.814 954.639,315.814 978.308,326.304 978.308,330.91 952.618,363.867 
				946.413,363.867 			"/>
			<rect x="325.212" y="343.623" fill="#E9EEF1" width="404.086" height="19.63"/>
			<path fill="#E9EEF1" d="M745.207,361.531H728.7v-17.908c0.02,0,0.637,0,0.655,0c8.76,0.031,15.852,7.143,15.852,15.907"/>
			<rect x="729.298" y="361.003" fill="#E9EEF1" width="15.909" height="2.249"/>
			<rect x="748.109" y="358.505" fill="#E9EEF1" width="27.144" height="40.384"/>
			<path fill="#E9EEF1" d="M862.885,364.355c0-6.463,6.936-11.702,15.491-11.702s15.49,5.239,15.49,11.702H862.885z"/>
			<rect x="897.312" y="361.014" fill="#E9EEF1" width="27.491" height="37.875"/>
			<rect x="335.833" y="296.338" fill="#E9EEF1" width="6.927" height="44.574"/>
			<rect x="325.212" y="324.492" fill="#E9EEF1" width="7.559" height="16.476"/>
			<rect x="325.212" y="315.763" fill="#E9EEF1" width="7.559" height="5.723"/>
			<rect x="325.212" y="306.921" fill="#E9EEF1" width="7.559" height="5.724"/>
			<path fill="#E9EEF1" d="M778.18,364.355c0-6.397,10.927-11.585,24.407-11.585c13.478,0,24.405,5.188,24.405,11.585H778.18z"/>
			<path fill="#E9EEF1" d="M936.13,324.435H735.394c-3.936,0-7.126,3.187-7.126,7.122l0.162,9.404h0.35
				c10.675,0,19.33,8.652,19.33,19.333v3.861h27.108c0.205-7.81,12.366-14.105,27.347-14.105c14.979,0,27.138,6.296,27.343,14.105
				h29.545c0.144-7.808,8.554-14.105,18.924-14.105c10.369,0,18.78,6.298,18.923,14.105h27.504v-1.509
				c0-10.189,8.262-18.45,18.452-18.45v-12.64C943.255,327.622,940.067,324.435,936.13,324.435z"/>
			<path fill="#E9EEF1" d="M927.696,364.156h15.751v-17.208c-8.699,0-15.751,7.052-15.751,15.75"/>
		</g>
	</g>
</g>
<g>
	<rect x="93.203" y="114.619" fill="none" width="302.988" height="117.637"/>
	<text transform="matrix(1 0 0 1 93.2031 124.8394)"><tspan x="0" y="0" fill="#E9EEF1" font-family="'Raleway'" font-size="14">Our chute will make the job so much easier </tspan><tspan x="0" y="16.8" fill="#E9EEF1" font-family="'Raleway'" font-size="14">because its extremely efficient and simple to  </tspan><tspan x="0" y="33.601" fill="#E9EEF1" font-family="'Raleway'" font-size="14">use and maintain. You only need 1-2 people  </tspan><tspan x="0" y="50.4" fill="#E9EEF1" font-family="'Raleway'" font-size="14">onsite to operate which cuts labor costs. Like  </tspan><tspan x="0" y="67.2" fill="#E9EEF1" font-family="'Raleway'" font-size="14">we said before, work is hard, we just want you  </tspan><tspan x="0" y="84" fill="#E9EEF1" font-family="'Raleway'" font-size="14">to take it easy.</tspan></text>
</g>
</svg>
